<svg width="160" height="107" viewBox="0 0 160 107" fill="none" xmlns="http://www.w3.org/2000/svg">
<rect y="30.3551" width="146" height="78" rx="39" transform="rotate(-12 0 30.3551)" fill="#FF6B00"/>
<path d="M43.1262 56.441L36.0374 55.4123L35.6049 53.3778L41.6625 49.5548L42.0051 51.1668L37.3909 53.9306L37.4441 54.181L42.7835 54.829L43.1262 56.441ZM46.268 57.8996L43.9394 46.9444L50.7003 45.5073L51.0263 47.041L45.9556 48.1188L46.6276 51.2802L51.2914 50.2889L51.6174 51.8226L46.9536 52.814L47.9582 57.5404L46.268 57.8996ZM54.6739 56.1129L52.3453 45.1576L56.9465 44.1796C57.6247 44.0355 58.2449 44.0291 58.8072 44.1604C59.3776 44.279 59.8503 44.5275 60.2252 44.9058C60.6104 45.2819 60.8674 45.7726 60.996 46.3777L61.0326 46.5499C61.179 47.2385 61.1296 47.827 60.8844 48.3153C60.6475 48.7909 60.312 49.1621 59.878 49.4289L59.9312 49.6793C60.3321 49.6159 60.6792 49.6839 60.9723 49.8832C61.2633 50.0722 61.4576 50.3962 61.5552 50.8553L62.327 54.4862L60.6211 54.8488L59.8992 51.4527C59.8393 51.171 59.7186 50.9622 59.537 50.8263C59.3555 50.6904 59.103 50.6568 58.7796 50.7256L55.446 51.4341L56.3642 55.7536L54.6739 56.1129ZM55.12 49.9004L57.8432 49.3216C58.4483 49.1929 58.8857 48.9419 59.1552 48.5683C59.4226 48.1843 59.4997 47.7263 59.3866 47.1942L59.36 47.069C59.2469 46.5369 58.9912 46.155 58.5931 45.9234C58.2031 45.6791 57.7003 45.6224 57.0847 45.7533L54.3616 46.3321L55.12 49.9004ZM68.725 53.3553C67.3791 53.6413 66.2298 53.493 65.2772 52.9104C64.3223 52.3173 63.693 51.306 63.3892 49.8766L62.8436 47.31C62.5398 45.8806 62.7045 44.706 63.3378 43.7862C63.9688 42.856 64.9573 42.2479 66.3033 41.9618C67.6492 41.6757 68.7996 41.8292 69.7544 42.4223C70.7175 43.0028 71.3509 44.0077 71.6548 45.4371L72.2003 48.0038C72.5041 49.4332 72.3353 50.6141 71.6938 51.5465C71.0605 52.4662 70.0709 53.0692 68.725 53.3553ZM68.4023 51.8372C69.2683 51.6531 69.8828 51.2608 70.2459 50.6601C70.6067 50.0491 70.694 49.3054 70.5077 48.429L69.9356 45.7371C69.7493 44.8607 69.3681 44.222 68.7922 43.8209C68.214 43.4095 67.4919 43.2958 66.6259 43.4799C65.7808 43.6595 65.1726 44.056 64.8013 44.6692C64.4278 45.272 64.3342 46.0117 64.5205 46.8881L65.0927 49.58C65.279 50.4564 65.6664 51.0992 66.2551 51.5084C66.8415 51.9072 67.5572 52.0168 68.4023 51.8372ZM75.0928 51.7727L72.7641 40.8175L76.0194 40.1256L81.0821 49.3219L81.3325 49.2687L79.2434 39.4403L80.918 39.0843L83.2466 50.0396L79.9913 50.7315L74.9253 41.5195L74.6749 41.5727L76.7673 51.4168L75.0928 51.7727ZM88.145 48.9984L86.1424 39.5769L82.7776 40.2921L82.4516 38.7584L90.8715 36.9687L91.1975 38.5024L87.8327 39.2176L89.8353 48.6391L88.145 48.9984ZM94.7321 47.5983L92.4035 36.643L99.3053 35.176L99.6313 36.7097L94.4198 37.8175L95.0884 40.9632L99.8618 39.9486L100.188 41.4823L95.4144 42.4969L96.0964 45.7053L101.386 44.5809L101.712 46.1146L94.7321 47.5983ZM103.474 45.7401L101.146 34.7848L104.401 34.0929L109.464 43.2892L109.714 43.236L107.625 33.4076L109.3 33.0516L111.628 44.0069L108.373 44.6988L103.307 35.4868L103.056 35.54L105.149 45.3841L103.474 45.7401ZM113.506 43.6077L113.187 42.1053L114.658 41.7926L112.968 33.8422L111.497 34.1549L111.177 32.6525L115.56 31.721C117.02 31.4106 118.215 31.5437 119.145 32.1203C120.085 32.6948 120.713 33.728 121.031 35.22L121.466 37.2702C121.784 38.7622 121.63 39.9618 121.005 40.8689C120.388 41.7633 119.349 42.3658 117.888 42.6763L113.506 43.6077ZM116.357 41.3987L117.578 41.1392C118.527 40.9374 119.181 40.5477 119.538 39.9702C119.895 39.3927 119.972 38.6292 119.77 37.6798L119.311 35.52C119.107 34.5601 118.726 33.8942 118.167 33.5223C117.608 33.1503 116.854 33.0653 115.905 33.2671L114.684 33.5266L116.357 41.3987ZM62.4601 74.9047L62.1408 73.4023L63.6119 73.0896L61.922 65.1392L60.4509 65.4519L60.1315 63.9495L64.5136 63.018C65.9743 62.7075 67.1694 62.8406 68.099 63.4173C69.0389 63.9917 69.6675 65.025 69.9846 66.517L70.4204 68.5672C70.7376 70.0592 70.5836 71.2587 69.9585 72.1658C69.3417 73.0603 68.3029 73.6628 66.8422 73.9733L62.4601 74.9047ZM65.3111 72.6957L66.5319 72.4362C67.4813 72.2344 68.1346 71.8447 68.4916 71.2672C68.8487 70.6897 68.9263 69.9262 68.7245 68.9767L68.2654 66.817C68.0614 65.8571 67.68 65.1912 67.1211 64.8192C66.5622 64.4473 65.808 64.3623 64.8586 64.5641L63.6379 64.8235L65.3111 72.6957ZM73.2751 72.6059L70.9465 61.6506L77.8483 60.1836L78.1743 61.7174L72.9628 62.8251L73.6314 65.9708L78.4048 64.9562L78.7308 66.49L73.9574 67.5046L74.6394 70.7129L79.9292 69.5885L80.2552 71.1222L73.2751 72.6059ZM84.2553 70.272L78.8749 59.9654L80.6277 59.5928L85.3907 68.9184L85.5941 68.8751L86.1367 58.4219L87.8895 58.0493L87.1819 69.6499L84.2553 70.272ZM90.096 72.302L91.7033 57.2387L93.3153 56.896L91.708 71.9594L90.096 72.302ZM96.6185 65.5176L96.2759 63.9057L100.906 61.1386L100.853 60.8882L95.4974 60.2435L95.1548 58.6315L102.244 59.6601L102.676 61.6947L96.6185 65.5176Z" fill="black"/>
</svg>
