<svg width="42" height="42" viewBox="0 0 42 42" fill="none" xmlns="http://www.w3.org/2000/svg">
<path d="M30.8098 15.2272C30.8677 15.1465 30.7821 15.0422 30.6894 15.0781C30.0307 15.3334 29.3423 15.5057 28.64 15.5906C29.4219 15.1235 30.0253 14.4124 30.3599 13.5705C30.394 13.4848 30.3003 13.4082 30.2195 13.4528C29.4928 13.8541 28.7091 14.1431 27.8949 14.3096C27.8608 14.3165 27.8257 14.3049 27.8018 14.2797C27.1908 13.635 26.3866 13.2058 25.5098 13.0575C24.6147 12.906 23.6946 13.056 22.8938 13.4838C22.0931 13.9116 21.457 14.5931 21.0853 15.4214C20.7319 16.209 20.6365 17.0869 20.8108 17.93C20.8243 17.9955 20.7731 18.0572 20.7065 18.0531C19.1224 17.9547 17.5747 17.5334 16.1587 16.8145C14.7463 16.0974 13.4955 15.0998 12.4827 13.8833C12.4377 13.8293 12.3525 13.8363 12.3198 13.8984C12.0046 14.4965 11.8396 15.1631 11.84 15.8406C11.8387 16.515 12.0042 17.1792 12.3218 17.7742C12.6393 18.3691 13.099 18.8763 13.66 19.2506C13.0651 19.2344 12.4818 19.0873 11.9513 18.8207C11.8829 18.7863 11.8009 18.8352 11.8045 18.9117C11.8458 19.8009 12.1723 20.6936 12.7373 21.3786C13.3387 22.1074 14.1733 22.6062 15.1 22.7906C14.7433 22.8992 14.3729 22.9564 14 22.9606C13.7971 22.9582 13.5945 22.9433 13.3936 22.9158C13.319 22.9056 13.2582 22.9764 13.2843 23.0469C13.5607 23.7944 14.049 24.4467 14.6911 24.9228C15.3776 25.4318 16.2056 25.7142 17.06 25.7306C15.6172 26.8659 13.8359 27.4855 12 27.4906C11.8114 27.4912 11.6228 27.4851 11.4347 27.4723C11.3287 27.4651 11.2799 27.6063 11.3713 27.6605C13.1601 28.7221 15.2046 29.2831 17.29 29.2806C18.8297 29.2966 20.3572 29.0056 21.7831 28.4247C23.2091 27.8437 24.5051 26.9845 25.5952 25.8971C26.6854 24.8097 27.548 23.516 28.1326 22.0915C28.7172 20.667 29.0121 19.1403 29 17.6006V17.1208C29 17.0892 29.015 17.0595 29.0402 17.0405C29.7184 16.5283 30.3149 15.9169 30.8098 15.2272Z" fill="black"/>
</svg>
