<svg width="453" height="532" viewBox="0 0 453 532" fill="none" xmlns="http://www.w3.org/2000/svg">
<g clip-path="url(#clip0_128_338)">
<path d="M11.0823 305.645L30.4572 307.543C61.388 309.903 92.3065 314.833 123 317.792C123.765 316.55 125.262 316.753 126.168 317.618C129.231 317.35 132.664 315.011 135.44 317.444C135.531 317.431 135.621 317.416 135.712 317.407C140.651 307.937 144.066 297.836 147.381 287.721C149.496 281.502 152.342 275.482 157.602 271.307C166.577 265.083 187.142 252.464 197.68 252.994C197.847 251.049 198.736 249.237 200.173 247.913C196.99 242.492 209.716 238.956 210.616 239.584C210.04 221.473 218.569 205.746 237.375 202.138C254.225 198.632 278.188 198.044 287.249 215.63C288.244 215.518 298.426 215.465 299.412 215.575C300.943 213.637 317.764 231.999 310.87 238.39C372.503 265.625 407.548 262.378 424.607 338.938C426.914 346.13 427.082 354.001 429.517 361.033C438.181 381.241 445.209 402.76 446.957 424.747C451.181 425.828 451.668 433.268 446.777 434.344C444.908 434.755 443.345 435.317 441.982 436.383C443.048 454.403 438.685 495.566 435.936 495.439C430.33 513.259 405.328 518.288 387.626 512.026C390.678 517.76 387.626 521.366 387.626 524.43C323.932 526.837 254.29 525.451 190.614 528.752C182.469 528.636 173.902 530.75 165.868 529.534C160.968 528.359 160.96 520.665 165.93 519.714L144.214 515.003C144.699 514.822 135.263 508.55 128.131 496.834C121.492 483.728 126.011 467.907 123.002 453.651C99.5091 451.732 75.6267 450.911 52.3902 446.937C49.222 456.406 35.507 445.082 31.1479 440.526L31.1641 440.505C30.0859 440.202 29.1316 439.566 28.4383 438.687C27.745 437.809 27.3485 436.733 27.3057 435.615C25.8263 433.503 25.5156 430.527 26.9344 428.486C20.4315 391.003 10.5165 352.732 6.93351 314.896C5.6559 314.624 4.46427 314.044 3.46224 313.207L3.54412 313.125C1.83042 311.217 1.49709 307.923 4.35416 306.303C6.65719 304.993 8.58119 305.4 11.0823 305.645Z" fill="white"/>
<path d="M175.977 531.999C184.53 531.999 197.084 531.164 213.29 529.515C220.422 528.789 235.096 528.105 256.904 527.482C275.376 526.954 295.361 526.567 309.954 526.284H309.999C317.613 526.136 323.626 526.02 327.193 525.927L328.172 525.9C338.273 525.609 348.455 525.461 358.434 525.461C368.413 525.461 378.47 525.609 388.325 525.9V513.702L331.79 485.692L281.134 457.23L256.711 445.935L251.736 449.098L211.03 462.199L186.155 465.362L165.802 462.199V496.986L161.731 529.514C162.184 530.339 163.608 530.965 165.972 531.378C168.335 531.79 171.7 531.999 175.977 531.999ZM369.755 440.778H380.262L441.404 426.03L446.914 424.213C446.448 418.759 445.688 413.334 444.637 407.962C443.632 402.79 442.327 397.408 440.756 391.963C437.657 381.43 433.903 371.1 429.517 361.033C428.259 357.399 427.594 353.469 426.951 349.669C426.347 346.1 425.723 342.413 424.608 338.938C421.228 323.767 417.095 311.474 411.974 301.355C410.743 298.922 409.431 296.575 408.075 294.38C406.745 292.227 405.329 290.148 403.869 288.202C401.079 284.476 397.94 281.024 394.494 277.894C388.36 272.315 381.131 267.606 371.745 263.072C363.235 258.961 353.994 255.464 343.296 251.412H343.292C333.605 247.744 322.626 243.586 310.872 238.392C311.39 237.901 311.804 237.31 312.087 236.655C312.37 235.999 312.516 235.293 312.518 234.58C312.519 232.914 312.18 231.265 311.523 229.734C310.339 226.722 308.085 223.187 305.337 220.034C304.316 218.84 303.201 217.728 302.003 216.711C300.988 215.875 300.208 215.433 299.749 215.433C299.686 215.429 299.622 215.439 299.564 215.464C299.505 215.489 299.453 215.527 299.412 215.575L299.316 215.566L299.107 215.556L298.838 215.546C298.132 215.526 296.851 215.514 295.229 215.514C291.94 215.514 287.854 215.562 287.25 215.63C286.744 214.647 286.177 213.698 285.552 212.787L281.813 215.575L289.975 228.97L250.213 261.097V286.758L237.625 298.651L230.431 286.758L220.292 273.29L213.086 251.459L215.54 237.074L210.606 236.61C210.582 237.59 210.586 238.591 210.618 239.584C210.491 239.524 210.35 239.499 210.211 239.512C209.331 239.512 207.264 239.99 205.166 240.875C204.125 241.303 203.13 241.837 202.199 242.47C201.361 243.012 200.651 243.731 200.119 244.576C199.812 245.081 199.655 245.662 199.664 246.252C199.674 246.843 199.85 247.418 200.173 247.913C198.733 249.235 197.842 251.049 197.677 252.995C197.46 252.984 197.238 252.979 197.017 252.979C194.514 252.979 191.337 253.654 187.574 254.986C183.806 256.364 180.135 257.992 176.584 259.858C173.208 261.597 169.633 263.621 165.958 265.873C162.249 268.147 159.363 270.084 157.597 271.308C155.049 273.37 152.915 275.894 151.308 278.749C149.699 281.601 148.382 284.607 147.377 287.722L146.879 289.239L146.365 290.797L145.847 292.353C143.123 300.494 140.01 309.164 135.709 317.409C135.641 317.416 135.573 317.426 135.511 317.435H135.499L135.437 317.444C134.62 316.715 133.555 316.324 132.46 316.349C131.282 316.412 130.118 316.632 128.998 317.002C128.075 317.292 127.128 317.498 126.167 317.618C125.726 317.183 125.136 316.932 124.517 316.915C124.226 316.912 123.938 316.983 123.682 317.121C123.426 317.26 123.21 317.462 123.054 317.708L122.999 317.792L161.162 325.303L186.336 413.51L208.258 395.734L220.025 397.483L251.102 408.678L287.245 418.056L369.755 440.778Z" fill="#9B9B9B"/>
<path d="M195.897 462.401C193.33 452.696 191.348 444.713 189.659 437.278C189.023 434.477 188.387 431.63 187.772 428.88V428.874C186.3 422.29 184.777 415.482 183.151 408.815C178.604 390.167 173.37 371.072 167.593 352.059C166.406 348.154 165.171 344.186 163.921 340.268L163.043 337.526L162.367 335.341C161.884 333.661 161.232 332.034 160.422 330.485C159.624 328.953 158.429 327.663 156.962 326.749C155.475 325.901 153.87 325.276 152.2 324.897C150.495 324.472 148.72 324.194 147.003 323.925C146.098 323.783 145.246 323.649 144.411 323.497L141.655 322.98C137.552 322.215 133.385 321.469 129.27 320.762C109.568 317.377 89.4928 314.626 69.6019 312.585C59.3034 311.528 48.7969 310.639 38.3744 309.941C28.0452 309.25 17.5138 308.727 7.07149 308.389L4.9833 308.324L6.11989 314.648C6.38809 314.736 6.66488 314.812 6.94349 314.874C7.28993 318.534 7.71236 322.344 8.1945 326.201L15.2415 365.433C16.4948 372.59 17.6648 379.66 18.7562 386.288L20.2741 393.762L21.2135 398.408C23.1275 407.896 25.1483 418.106 26.9439 428.466C26.6854 428.839 26.4798 429.246 26.3329 429.676L26.4658 430.238L26.5563 430.613L26.6513 430.983C26.9826 432.292 27.3993 433.577 27.8987 434.831C28.38 436.052 28.9949 437.217 29.7322 438.303C30.453 439.364 31.3402 440.302 32.3595 441.081C33.4464 441.893 34.6775 442.493 35.9878 442.848C39.1271 443.713 42.5223 443.995 45.8059 444.268C46.9262 444.361 48.0841 444.457 49.2012 444.575L49.6842 444.628L125.968 453.197C133.996 454.1 142.522 455.079 153.61 456.376L161.594 457.311C163.518 457.534 165.475 457.752 167.369 457.962L167.391 457.965C176.452 458.973 185.822 460.016 194.886 461.941C195.253 462.015 195.597 462.171 195.894 462.398L195.897 462.401ZM82.8063 362.156C83.0577 362.151 83.307 362.203 83.5355 362.308C83.764 362.412 83.9658 362.567 84.1258 362.761C84.2858 362.955 84.3998 363.182 84.4593 363.426C84.5188 363.67 84.5222 363.925 84.4693 364.17L84.416 364.441C84.1234 366.07 84.3083 367.749 84.9483 369.275C85.5887 370.806 86.5332 372.191 87.7249 373.347C88.4845 374.041 89.3109 374.658 90.1921 375.189C91.795 376.235 93.4526 377.317 94.079 379.094C94.344 379.817 94.361 380.609 94.1274 381.343C93.8902 382.057 93.469 382.695 92.9062 383.195L93.1685 383.324L93.425 383.455L93.6755 383.588L93.9198 383.723L94.1577 383.859C95.341 384.513 96.423 385.336 97.3698 386.301C98.2395 387.157 98.8443 388.244 99.112 389.434C99.4001 390.952 98.9202 392.503 97.6855 394.046C96.894 395.021 95.9316 395.844 94.8451 396.475C93.7297 397.119 92.536 397.618 91.2934 397.958C88.7023 398.631 86.0316 398.947 83.3549 398.899C82.1921 398.899 80.9732 398.854 79.6294 398.767L79.2369 398.74C74.947 398.418 67.241 397.012 63.8289 391.209C63.1394 390.069 62.8223 388.742 62.9217 387.414C63.0354 386.085 63.6062 384.836 64.5372 383.879C65.6562 382.71 67.7679 381.382 69.7602 381.227C69.6575 380.198 69.8044 379.16 70.1885 378.2C70.6305 377.228 71.3613 376.415 72.2816 375.871C73.2049 375.299 74.2627 374.98 75.3486 374.946C75.278 373.274 75.7792 371.464 76.8823 369.415C77.8906 367.655 79.0242 365.97 80.2744 364.372C80.4626 364.12 80.657 363.859 80.8452 363.604L81.0903 363.27L81.3287 362.942C81.4938 362.702 81.7144 362.505 81.9718 362.367C82.2292 362.23 82.5159 362.157 82.8076 362.154L82.8063 362.156ZM196.972 461.901C197.481 461.555 198.086 461.376 198.702 461.39H198.838C203.458 461.34 208.052 460.704 212.512 459.496C216.977 458.287 221.374 456.837 225.683 455.152L227.002 454.649L230.681 453.237C234.071 451.94 238.021 450.455 242.011 449.245L243.559 448.782L244.346 448.55C247.026 447.768 250.187 446.942 253.313 446.742L253.724 446.719L252.846 446.259C252.725 446.195 252.611 446.119 252.505 446.033C251.903 446.078 251.339 446.099 250.781 446.099C249.657 446.103 248.536 446.005 247.43 445.807C244.126 445.207 240.94 444.083 237.992 442.477L236.681 441.766L236.143 441.481L235.787 441.297L235.434 441.119C234.524 440.65 233.575 440.26 232.597 439.955C231.618 439.655 230.6 439.501 229.575 439.499C228.812 439.501 228.051 439.582 227.304 439.743C224.399 440.354 221.741 441.751 219.174 443.101C218.543 443.433 217.892 443.775 217.248 444.1L216.669 444.388L216.28 444.576L215.883 444.763L215.482 444.946C212.444 446.311 209.849 447.004 207.77 447.004C204.911 447.004 203.089 445.683 202.353 443.077C201.729 440.863 202.076 438.631 203.385 436.436C203.306 436.429 203.225 436.426 203.146 436.426C202.015 436.426 200.506 437.041 198.906 437.691C197.34 438.328 195.721 438.987 194.318 439.128L194.124 439.144L196.973 461.896L196.972 461.901ZM83.5299 395.734C85.3579 395.759 87.1842 395.611 88.9845 395.294C90.7181 395.012 92.3737 394.371 93.8456 393.414C95.0989 392.556 95.8266 391.527 95.9505 390.441C95.9883 389.915 95.9089 389.387 95.718 388.894C95.5271 388.402 95.2295 387.959 94.8465 387.595C93.7859 386.442 92.69 385.251 91.5534 384.091C90.9349 384.396 90.2551 384.555 89.5657 384.557C88.5531 384.516 87.5607 384.261 86.6539 383.81C86.6109 383.791 86.5761 383.757 86.5558 383.715C86.5354 383.673 86.5309 383.625 86.543 383.58C86.5524 383.525 86.5801 383.475 86.6216 383.438C86.663 383.401 86.7159 383.379 86.7715 383.375C87.2441 383.375 88.3336 382.946 89.3612 382.355C89.9293 382.029 91.2608 381.194 91.3671 380.493C91.5078 379.559 89.9836 378.765 88.9754 378.239H88.9723C88.8619 378.182 88.7574 378.127 88.6638 378.077L88.5281 378.003L88.4105 377.935C87.4304 377.342 86.5118 376.653 85.6683 375.879C83.5469 373.979 82.0286 371.501 81.3006 368.75L81.2414 368.505L79.0519 376.697L79.0899 376.764C79.2107 376.993 79.2687 377.251 79.258 377.51C79.2474 377.768 79.1685 378.02 79.0293 378.239C78.8841 378.487 78.6784 378.696 78.4312 378.844C78.1841 378.992 77.9035 379.076 77.6154 379.087C77.4323 379.085 77.2514 379.047 77.0838 378.973C76.9162 378.899 76.7654 378.792 76.6408 378.658L76.52 378.529C76.3742 378.367 76.1965 378.238 75.998 378.149C75.7995 378.06 75.5847 378.014 75.3671 378.012C75.0424 378.033 74.7253 378.119 74.4348 378.265C74.1442 378.412 73.8863 378.615 73.6765 378.863C73.2152 379.329 72.9348 379.943 72.8855 380.597C72.872 381.638 73.1855 382.658 73.7819 383.512C74.3706 384.354 75.1207 385.071 75.9886 385.621L76.1084 385.698L76.425 385.894C76.6806 386.043 76.8784 386.273 76.9865 386.548C77.0945 386.823 77.1064 387.126 77.0202 387.408C76.9178 387.736 76.7134 388.022 76.4368 388.225C76.1601 388.428 75.8258 388.538 75.4825 388.538C75.3966 388.538 75.3109 388.531 75.226 388.518C73.4689 388.249 71.8533 386.905 70.7936 384.83C70.4237 384.928 70.0484 385.004 69.6697 385.059C68.9174 385.141 68.1856 385.356 67.5087 385.694C67.126 385.868 66.7923 386.134 66.5373 386.468C66.2824 386.802 66.1143 387.193 66.0478 387.608C66.0031 388.334 66.1949 389.056 66.5947 389.664C67.0115 390.35 67.5279 390.97 68.127 391.504L68.1993 391.568L68.3441 391.694C69.9869 393.052 71.8943 394.054 73.9452 394.636C75.995 395.225 78.1086 395.565 80.24 395.648L80.4815 395.658C81.307 395.693 82.4038 395.734 83.5299 395.734Z" fill="white"/>
<path d="M161.681 531.587C161.918 531.587 162.152 531.538 162.368 531.442C162.585 531.346 162.779 531.206 162.938 531.03C163.755 530.141 164.357 529.077 164.698 527.919C165.03 526.762 165.273 525.582 165.427 524.388V524.386V524.378C165.487 523.987 165.55 523.582 165.618 523.183C166.095 520.398 166.527 517.505 166.939 514.34C167.806 507.684 168.283 502.204 168.439 497.093C168.62 491.207 168.55 485.232 168.232 479.334C168.076 476.459 167.878 473.37 167.478 470.246C167.295 468.808 167.135 467.602 166.953 466.388C166.885 465.936 166.81 465.478 166.721 464.988L171.611 465.539C178.772 466.337 186.412 467.127 194.16 467.247H194.204C194.59 467.251 194.971 467.164 195.317 466.993C195.663 466.822 195.964 466.571 196.194 466.261C196.454 466.684 196.822 467.029 197.26 467.263C197.698 467.497 198.19 467.611 198.687 467.593H198.701C209.46 467.553 219.455 463.944 228.654 460.051C230.954 459.077 233.272 458.05 235.515 457.056L235.524 457.052C237.996 455.956 240.552 454.823 243.089 453.76C244.952 452.979 246.901 452.279 248.787 451.601C251.529 450.669 254.22 449.595 256.85 448.381L268.437 454.453C268.737 455.536 269.412 456.478 270.34 457.112C271.014 457.583 271.742 457.973 272.508 458.271C273.608 458.728 274.787 458.962 275.977 458.961C276.301 458.961 276.625 458.944 276.948 458.911C287.545 464.457 295.679 468.707 303.322 472.69L312.12 477.271C317.207 479.917 322.331 482.597 327.286 485.189C339.533 491.596 352.198 498.222 364.748 504.555L366.046 505.208C371.725 508.054 378.47 511.281 385.442 513.661C385.54 515.389 385.506 517.121 385.343 518.843L385.309 519.237C385.293 519.401 385.276 519.565 385.259 519.738V519.757C385.119 520.8 385.084 521.855 385.157 522.906C385.21 523.922 385.653 524.878 386.394 525.577C386.803 525.933 387.328 526.129 387.871 526.129C388.203 526.141 388.533 526.058 388.819 525.89C389.106 525.721 389.339 525.474 389.49 525.178C389.919 524.212 390.089 523.151 389.982 522.099C389.896 520.961 389.738 519.829 389.507 518.711C389.411 518.191 389.321 517.702 389.253 517.247C389.136 516.395 388.97 515.55 388.755 514.717C391.49 515.539 394.273 516.191 397.089 516.669C399.872 517.14 402.689 517.381 405.511 517.392C407.812 517.396 410.109 517.212 412.38 516.845C414.251 516.536 416.078 516.007 417.825 515.269C419.528 514.543 421.153 513.645 422.673 512.587C424.203 511.521 425.644 510.333 426.981 509.034C428.339 507.715 429.615 506.315 430.803 504.842C433.323 501.734 435.492 498.358 437.27 494.775C439.047 491.191 440.429 487.424 441.389 483.542C442.447 479.118 443.112 474.609 443.376 470.068C443.682 465.494 443.702 460.812 443.677 456.434C443.646 451.057 443.524 446.307 443.303 441.91C443.041 436.714 442.643 431.978 442.086 427.434C443.226 427.14 444.395 426.975 445.572 426.941C445.756 426.941 445.938 426.947 446.112 426.959C446.391 427.399 446.788 427.753 447.258 427.979C447.72 428.202 448.226 428.317 448.739 428.316C448.874 428.316 449.008 428.308 449.142 428.292C449.371 428.511 449.538 428.786 449.628 429.089C449.717 429.393 449.726 429.714 449.653 430.022C449.424 430.921 448.497 431.862 446.898 432.819C445.775 433.48 444.592 434.032 443.364 434.469C443.203 434.529 443.068 434.644 442.984 434.793C442.899 434.943 442.87 435.117 442.902 435.286C442.92 435.433 442.992 435.567 443.105 435.663C443.218 435.758 443.362 435.808 443.51 435.802H443.545L444.048 435.778C447.182 435.611 450.331 435.065 452.13 432.225C452.816 431.16 453.11 429.89 452.961 428.632C452.805 427.402 452.261 426.252 451.409 425.35C450.384 415.674 448.047 406.072 445.786 396.786L445.772 396.727C445.513 395.666 445.246 394.569 444.985 393.489C442.67 383.899 439.982 373.809 436.767 362.643L435.447 358.067C433.215 350.346 430.788 342.09 428.17 334.033C425.297 325.192 422.485 317.487 419.573 310.476C417.775 306.147 416.056 302.438 414.318 299.136C412.396 295.437 410.189 291.894 407.717 288.537C405.414 285.441 402.873 282.529 400.119 279.825C397.36 277.127 394.405 274.636 391.276 272.375C385.975 268.535 379.799 265.056 372.397 261.74C365.873 258.817 359.106 256.323 352.169 253.815L351.562 253.596C344.809 251.156 337.595 248.515 330.586 245.739C327.412 244.482 324.254 243.028 321.204 241.622C318.352 240.307 315.402 238.948 312.448 237.755C312.65 237.389 312.843 237.021 313.023 236.663L313.136 236.758H313.138C313.156 236.772 313.174 236.786 313.193 236.799C313.424 236.953 313.696 237.034 313.974 237.029C314.435 237.023 314.879 236.848 315.22 236.538C315.525 236.283 315.765 235.96 315.92 235.594C316.075 235.228 316.14 234.831 316.11 234.435C315.997 233.657 315.688 232.92 315.211 232.295L315.086 232.117C314.196 230.871 313.367 229.55 312.563 228.272C312.327 227.897 312.059 227.471 311.799 227.062L311.124 226.003C309.353 223.233 307.421 220.333 305.002 217.988C303.938 216.958 302.709 216.114 301.365 215.49C301.373 215.47 301.375 215.448 301.372 215.426C301.368 215.405 301.359 215.384 301.345 215.367C301.112 215.119 300.792 214.97 300.452 214.953C300.372 214.947 300.293 214.97 300.229 215.018C297.856 214.217 295.36 213.84 292.856 213.903C290.799 213.903 288.716 214.08 286.925 214.246L286.072 211.539C285.757 210.686 285.194 209.947 284.454 209.416C283.823 208.981 283.075 208.75 282.308 208.751C281.445 208.752 280.605 209.035 279.918 209.558C279.232 210.08 278.735 210.814 278.505 211.645C278.327 212.302 278.289 212.989 278.394 213.661C278.815 216.614 280.367 219.679 281.982 222.551C283.012 224.385 284.453 226.712 286.464 228.446C283.117 231.563 279.624 234.585 276.082 237.424C272.187 240.532 268.113 243.41 263.883 246.044C262.74 246.757 261.564 247.456 260.426 248.132C257.8 249.628 255.259 251.269 252.814 253.046C251.174 254.255 249.663 255.63 248.306 257.15C246.944 258.667 245.861 260.411 245.103 262.303C244.348 264.285 244.038 266.408 244.197 268.523C244.357 270.633 244.754 272.719 245.378 274.741L245.514 275.205C245.656 275.684 245.807 276.162 245.966 276.669C247.139 280.392 248.468 284.612 245.913 287.989C244.838 289.408 243.394 290.538 241.997 291.631C241.481 292.034 240.948 292.451 240.445 292.874C238.799 294.258 237.26 295.765 235.842 297.381C232.721 300.865 230.284 304.906 228.66 309.291L228.518 309.692C227.775 311.724 227.286 313.84 227.063 315.992C226.811 318.121 227.135 320.278 228.003 322.238C228.1 322.446 228.257 322.62 228.453 322.739C228.649 322.858 228.876 322.917 229.105 322.909C229.417 322.915 229.723 322.822 229.978 322.642C230.233 322.462 230.423 322.205 230.522 321.909C230.848 320.588 231.073 319.244 231.194 317.889C231.305 316.742 231.479 315.602 231.713 314.474C232.307 311.924 233.254 309.469 234.527 307.181C236.988 302.777 240.271 298.885 244.198 295.715L245.37 294.763C246.899 293.576 248.291 292.222 249.521 290.728C250.746 289.208 251.548 287.392 251.847 285.464C252.378 281.919 251.336 278.473 250.328 275.139L250.326 275.13C250.076 274.305 249.819 273.453 249.591 272.616C248.682 269.285 248.62 266.626 249.394 264.25C250.214 265.519 251.114 266.734 252.09 267.888C252.416 268.289 252.724 268.669 253.016 269.043C254.774 271.293 256.564 273.556 258.296 275.746L258.53 276.042L259.833 277.689C262.416 280.959 264.632 283.913 266.608 286.718C267.652 288.201 268.652 289.647 269.491 290.865C269.884 291.434 270.369 292.013 270.839 292.573L270.841 292.576C271.234 293.044 271.64 293.529 271.996 294.011C271.888 294.285 271.846 294.582 271.876 294.875C271.905 295.169 272.004 295.452 272.164 295.699C272.902 296.693 273.743 297.199 274.665 297.2C276.21 297.2 278.005 295.799 280.002 293.032C281.363 291.07 282.583 289.014 283.653 286.88L283.74 286.714L283.772 286.653C285.333 283.659 286.718 280.522 288.057 277.488C289.414 274.42 290.813 271.247 292.396 268.221C295.659 261.957 299.376 255.939 303.517 250.216C304.467 248.911 305.473 247.618 306.447 246.366C308.045 244.313 309.697 242.191 311.121 239.981C313.898 242.422 316.949 244.533 320.212 246.271C323.586 248.132 327.223 249.789 330.145 251.121H330.149C335.722 253.659 341.554 255.871 347.194 258.01L347.205 258.014C348.817 258.625 350.485 259.258 352.119 259.887L354.29 260.73C361.438 263.517 367.386 265.965 373.176 268.858C380.027 272.282 385.68 275.881 390.459 279.862C393.505 282.412 396.31 285.235 398.84 288.298C401.338 291.332 403.606 294.548 405.624 297.92C407.651 301.307 409.483 304.807 411.111 308.402C412.653 311.775 414.121 315.375 415.597 319.407C418.533 327.422 421.375 335.918 424.285 345.382C426.682 353.183 429.103 361.545 431.896 371.695C434.392 380.763 436.758 389.877 438.928 398.783C439.592 401.508 440.228 404.288 440.843 406.977V406.985C442.028 412.169 443.255 417.53 444.737 422.732C444.536 422.724 444.335 422.721 444.139 422.721C441.345 422.721 438.414 423.362 435.579 423.98C433.96 424.334 432.432 424.668 431.06 424.847C421.488 426.099 412.846 427.632 404.642 429.535C400.198 430.565 395.84 431.72 391.688 432.968C387.331 434.278 383.05 435.731 378.969 437.291C378.512 437.456 378.093 437.713 377.739 438.046C377.385 438.379 377.104 438.782 376.912 439.228C376.569 440.052 376.512 440.967 376.749 441.828L375.318 441.421L375.265 441.406C374.518 441.194 373.845 441.003 373.163 440.812C374.23 439.18 374.014 436.508 373.842 434.361C373.802 433.874 373.765 433.413 373.746 433.002L373.74 432.849C373.67 430.902 373.505 428.925 373.345 427.012V427.002C373.262 426.008 373.176 424.98 373.105 423.97C372.684 417.999 372.161 412.495 371.503 407.144L371.328 405.743C370.996 403.147 370.695 400.502 370.407 397.949V397.945C370.016 394.496 369.612 390.93 369.124 387.437L369.024 386.74C369.378 385.388 369.803 383.961 370.404 382.116C371.331 379.265 372.547 376.484 373.722 373.794C374.228 372.638 374.75 371.442 375.245 370.252C375.272 370.196 375.284 370.133 375.279 370.071C375.275 370.009 375.255 369.949 375.221 369.897C375.17 369.829 375.104 369.775 375.027 369.738C374.951 369.701 374.867 369.683 374.783 369.685C374.667 369.683 374.554 369.723 374.466 369.799C373.075 371.063 371.816 372.465 370.708 373.983C369.593 375.508 368.589 377.111 367.704 378.78C367.691 378.712 367.678 378.644 367.665 378.576C367.65 378.493 367.632 378.4 367.614 378.31L367.412 377.316C366.909 374.871 366.294 372.32 364.815 370.367C364.777 370.315 364.727 370.272 364.67 370.242C364.612 370.212 364.549 370.195 364.484 370.193C364.424 370.193 364.366 370.21 364.314 370.24C364.263 370.271 364.221 370.314 364.192 370.367C363.541 371.523 363.097 372.784 362.881 374.094C362.657 375.412 362.504 376.742 362.424 378.077C362.411 378.245 362.398 378.411 362.385 378.574C362.104 382.077 362.116 385.594 362.149 387.933C362.217 392.801 362.511 397.754 362.793 402.544C362.86 403.668 362.935 404.942 363.006 406.188C363.312 411.644 363.915 417.456 364.849 423.955L365.01 425.063C365.122 425.822 365.23 426.597 365.335 427.346V427.352C365.619 429.382 365.912 431.479 366.312 433.515L366.466 434.276C366.557 434.705 366.637 435.19 366.722 435.702C366.884 436.901 367.152 438.084 367.522 439.236C353.201 435.246 338.048 431.12 322.483 426.971C314.764 424.913 306.913 422.844 299.321 420.843C296.225 420.027 293.023 419.183 289.856 418.347C289.275 417.291 288.54 416.327 287.676 415.486C286.762 414.584 285.706 413.838 284.551 413.277C283.471 412.749 282.287 412.468 281.084 412.455C279.734 412.461 278.413 412.845 277.271 413.563C277.2 413.608 277.141 413.671 277.101 413.746C277.062 413.821 277.042 413.905 277.045 413.99C277.045 414.067 277.066 414.143 277.106 414.21C277.146 414.276 277.203 414.331 277.271 414.368C278.078 414.808 278.728 415.176 279.315 415.524L272.784 413.758C271.344 413.368 269.873 412.942 268.45 412.53H268.444C265.024 411.539 261.487 410.515 257.966 409.864C248.942 405.416 239.18 402.149 229.739 398.989L229.171 398.799L228.028 398.413C227.368 398.187 226.68 397.951 226.073 397.742C221.741 396.251 217.26 394.708 212.802 393.893C212.021 393.749 211.229 393.676 210.434 393.675C208.927 393.644 207.434 393.972 206.079 394.631C204.726 395.308 203.675 396.466 203.131 397.876C201.238 399.169 199.42 400.568 197.686 402.067C196.801 402.809 195.927 403.597 195.082 404.358L195.071 404.368C194.722 404.684 194.362 405.007 194.005 405.324L193.779 405.521L193.558 405.712L193.549 405.72C192.666 406.477 191.968 407.075 191.742 408.347C191.707 408.561 191.716 408.78 191.771 408.989C191.826 409.199 191.924 409.395 192.059 409.564C192.151 409.68 192.268 409.773 192.401 409.837C192.534 409.901 192.68 409.935 192.828 409.935C192.867 409.935 192.907 409.933 192.946 409.928C195.097 409.698 196.908 407.682 198.507 405.904C198.906 405.459 199.284 405.038 199.65 404.665C201.242 403.039 202.552 401.653 203.769 400.158C204.049 400.312 204.363 400.394 204.683 400.396C204.96 400.403 205.234 400.331 205.472 400.188C205.71 400.045 205.902 399.838 206.026 399.589C206.442 398.763 207.109 398.09 207.933 397.668C208.737 397.291 209.618 397.106 210.506 397.13C212.683 397.13 215.2 397.983 217.223 398.669H217.226C217.877 398.89 218.492 399.099 219.041 399.261L224.418 400.851C226.648 401.511 229.579 402.381 232.478 403.261C235.182 404.081 237.92 404.95 240.568 405.791C245.162 407.248 249.913 408.754 254.631 410.057C254.461 410.242 254.338 410.465 254.274 410.707C254.21 410.95 254.205 411.204 254.261 411.449C254.329 411.711 254.462 411.952 254.647 412.15C254.832 412.348 255.064 412.497 255.321 412.583C259.551 414.241 264.13 415.329 268.558 416.382H268.565C270.22 416.776 271.932 417.183 273.585 417.611C277.373 418.592 281.229 419.599 285.041 420.598C285.734 421.709 286.185 422.954 286.364 424.25C286.686 426.935 286.606 429.653 286.128 432.315C285.674 434.993 285.07 437.644 284.319 440.254L284.113 440.994C283.546 443.137 282.796 445.227 281.871 447.242C280.745 449.569 279.443 451.253 277.891 452.388C277.014 453.028 275.982 453.421 274.901 453.526C268.047 450.002 261.343 446.555 254.671 443.135C254.405 442.994 254.108 442.918 253.807 442.915C253.385 442.934 252.98 443.088 252.652 443.354C252.324 443.62 252.091 443.984 251.986 444.393C249.639 444.001 247.327 443.421 245.073 442.656C242.98 441.868 240.98 440.854 239.108 439.634C237.857 438.88 236.565 438.101 235.2 437.449C233.571 436.666 231.784 436.266 229.976 436.278C227.735 436.332 225.522 436.789 223.444 437.627C221.314 438.469 219.232 439.425 217.205 440.491C216.804 440.693 216.389 440.902 215.984 441.102L214.625 441.77C212.816 442.647 210.171 443.812 208.103 443.812C206.615 443.812 205.64 443.205 205.208 442.009C204.919 441.186 204.897 440.293 205.144 439.457C205.406 438.581 205.828 437.761 206.388 437.037C207.486 435.614 208.835 434.404 210.368 433.465C211.876 432.567 213.478 431.836 215.144 431.284C216.905 430.679 218.694 430.224 220.21 429.859C222.18 429.386 224.145 429.01 226.053 428.742C226.763 428.642 227.493 428.578 228.198 428.516C229.732 428.441 231.251 428.186 232.725 427.755C232.989 427.656 233.215 427.476 233.369 427.24C233.524 427.004 233.599 426.726 233.584 426.444C233.58 426.202 233.492 425.969 233.335 425.784C233.179 425.599 232.963 425.474 232.725 425.429C231.783 425.225 230.821 425.126 229.857 425.134C227.33 425.134 224.606 425.71 222.04 426.334L220.24 426.777C217.326 427.491 213.541 428.547 210.105 430.391C208.89 431.044 207.744 431.816 206.682 432.695C205.584 433.593 204.613 434.636 203.796 435.795C203.031 435.081 202.015 434.698 200.97 434.73C200.277 434.743 199.588 434.845 198.922 435.035L197.953 435.304C196.922 435.636 195.85 435.826 194.767 435.869C194.341 435.869 193.917 435.827 193.5 435.744C193.3 434.66 193.084 433.495 192.855 432.351C190.588 420.98 188.121 409.804 185.522 399.135C183.231 389.727 180.713 380.187 178.04 370.781C175.395 361.475 172.522 352.039 169.5 342.728L168.894 340.868C168.584 339.92 168.28 338.931 167.987 337.977L167.984 337.968C166.948 334.593 165.878 331.103 164.136 328.069C163.126 326.307 161.738 324.791 160.071 323.629C158.392 322.486 156.531 321.637 154.568 321.116C151.098 320.213 147.586 319.484 144.044 318.932L144.029 318.93C142.863 318.728 141.657 318.519 140.481 318.302C139.857 318.187 139.208 318.071 138.635 317.969C138.213 317.893 137.776 317.815 137.346 317.737C137.972 316.552 138.529 315.331 139.013 314.081C139.176 313.682 139.329 313.306 139.481 312.952L139.585 312.712C140.976 309.545 142.201 306.328 143.113 303.879L143.941 301.644C145.847 296.508 147.948 291.065 150.809 285.937C152.259 283.338 153.992 280.907 155.976 278.687C157.966 276.475 160.18 274.477 162.584 272.723C167.238 269.311 172.424 266.635 177.438 264.049C180.3 262.573 183.258 261.046 186.087 259.399C188.939 257.768 191.662 255.923 194.233 253.879C194.294 253.836 194.338 253.775 194.36 253.704C194.383 253.634 194.381 253.558 194.356 253.488C194.32 253.397 194.258 253.318 194.178 253.262C194.097 253.206 194.002 253.174 193.904 253.172C193.84 253.173 193.777 253.188 193.72 253.217C189.157 255.507 184.267 257.312 179.538 259.058H179.536C177.501 259.809 175.399 260.585 173.356 261.388L172.016 261.915C166.769 263.994 161.257 266.311 156.554 269.794C154.005 271.68 151.673 273.842 149.6 276.241C147.535 278.648 145.735 281.27 144.231 284.061C141.768 288.615 140.011 293.659 138.313 298.537V298.541C137.933 299.634 137.54 300.763 137.147 301.862L136.577 303.452C135.757 305.724 134.854 308.153 133.811 310.531C133.486 311.272 133.054 312.044 132.596 312.862C131.884 314.041 131.286 315.286 130.811 316.578L130.436 316.513L130.421 316.511C128.705 316.213 126.931 315.906 125.185 315.614C115.076 313.928 104.793 312.395 94.6217 311.055C84.4584 309.717 74.1296 308.536 63.922 307.546C53.7145 306.556 43.3553 305.73 33.1215 305.09C22.8877 304.45 12.5015 303.978 2.25098 303.689H2.1813C1.87895 303.683 1.57907 303.745 1.30382 303.87C1.02856 303.995 0.784985 304.18 0.591077 304.412C0.349284 304.714 0.175243 305.064 0.0807404 305.438C-0.0137619 305.813 -0.0265139 306.203 0.043363 306.583C2.27086 319.742 4.39026 333.123 6.44001 346.064L6.44453 346.091C8.03566 356.136 9.68062 366.523 11.364 376.726C13.0827 387.14 14.8163 397.427 16.52 407.3C16.9009 409.508 17.3124 411.742 17.7105 413.903C18.2455 416.807 18.7982 419.808 19.2812 422.769C19.4264 423.661 19.5657 424.569 19.7 425.447L19.705 425.48C20.1379 428.765 20.7784 432.02 21.6227 435.225C22.8326 439.447 24.5625 442.708 26.9176 445.194C28.3326 446.658 30.0234 447.828 31.8927 448.638C33.7611 449.445 35.7228 450.018 37.7326 450.343C44.7701 451.553 52.0424 452.277 59.0754 452.977C62.178 453.286 65.3852 453.605 68.5244 453.962L123.001 460.152C122.614 463.659 122.392 467.191 122.322 470.949C122.257 474.38 122.319 477.931 122.513 481.808L122.721 485.8C122.883 488.869 123.082 492.139 123.556 495.404C123.837 497.335 124.43 499.209 125.311 500.951C126.206 502.689 127.328 504.3 128.649 505.742C131.027 508.375 133.854 510.607 137.035 513.045C139.804 515.168 143.068 517.555 146.754 519.041L147.216 519.225C148.898 519.882 150.618 520.441 152.367 520.896C154.363 521.444 156.42 521.744 158.49 521.788C159.153 521.792 159.815 521.743 160.47 521.641C160.362 522.181 160.232 522.738 160.108 523.277C159.571 525.585 159.017 527.971 159.791 530.202C159.934 530.606 160.196 530.956 160.544 531.207C160.874 531.448 161.271 531.581 161.681 531.587V531.587ZM125.634 460.45L131.342 461.098C138.035 461.859 144.624 462.58 150.186 463.186L163.832 464.667C163.849 465.051 163.881 465.423 163.911 465.783V465.787C163.941 466.148 163.97 466.494 163.979 466.791C164.069 469.934 164.14 473.125 164.197 475.871C164.323 481.904 164.184 488.024 163.785 494.065C163.336 500.874 162.798 506.455 162.094 511.627L161.932 512.792L161.838 513.404C161.484 513.443 161.142 513.551 160.831 513.723C160.52 513.895 160.246 514.127 160.026 514.405C159.691 514.804 159.072 515.006 158.183 515.006C156.607 515.006 154.527 514.385 153.06 513.863C150.328 512.892 147.713 511.204 145.515 509.681C143.263 508.082 141.155 506.289 139.215 504.323L137.603 502.73C136.028 501.166 134.406 499.47 133.409 497.438C132.31 495.198 132.004 492.564 131.707 490.017C131.646 489.492 131.582 488.949 131.513 488.429C131.092 485.245 130.564 481.782 129.854 477.532L125.633 460.451L125.634 460.45ZM441.369 427.614L441.393 433.536C441.423 441.593 441.417 450.171 440.981 458.69L440.9 460.244C440.412 469.363 439.655 479.01 436.305 487.903C434.949 491.507 433.203 494.953 431.098 498.179C429 501.408 426.515 504.37 423.7 506.998C422.325 508.299 420.822 509.458 419.214 510.457C417.603 511.45 415.856 512.205 414.027 512.698C411.54 513.337 408.979 513.645 406.412 513.613C405.398 513.613 404.361 513.575 403.242 513.498C388.262 512.454 374.702 505.269 361.586 498.318H361.584C359.6 497.267 357.548 496.18 355.542 495.142C332.041 482.989 306.991 470.039 281.814 457.081C282.485 456.623 283.108 456.099 283.674 455.516C286.441 452.661 288.405 448.667 289.854 442.947C291.093 438.073 291.774 433.073 291.882 428.045L291.331 422.255L291.923 422.411C298.046 424.037 304.258 425.699 310.264 427.307C325.393 431.358 341.036 435.546 356.476 439.452C362.63 441.008 368.901 442.524 374.966 443.991C379.426 445.069 384.038 446.184 388.567 447.306L390.298 447.739C398.585 449.83 407.22 452.387 413.721 458.539C413.767 458.584 413.828 458.611 413.893 458.612C413.944 458.61 413.994 458.593 414.037 458.564C414.079 458.535 414.113 458.494 414.133 458.447C414.153 458.402 414.158 458.353 414.149 458.305C414.14 458.257 414.116 458.213 414.081 458.179C410.937 454.836 406.938 452.095 401.855 449.798C397.25 447.72 392.347 446.252 387.721 444.93C386.754 444.654 385.769 444.377 384.818 444.109L384.777 444.097C384.099 443.906 383.253 443.668 382.448 443.439C396.83 438.318 409.744 434.568 421.932 431.977C423.646 431.612 425.4 431.291 427.095 430.979H427.097C428.821 430.663 430.603 430.336 432.344 429.964C433.896 429.632 435.449 429.198 436.951 428.779C437.781 428.547 438.639 428.308 439.493 428.086L441.369 427.614ZM4.97144 308.344C15.7656 308.67 26.6489 309.191 37.3187 309.893C48.0944 310.601 58.9519 311.514 69.5887 312.603C89.4729 314.643 109.548 317.392 129.256 320.78C133.369 321.487 137.536 322.233 141.641 322.998L144.114 323.463C145.036 323.638 145.985 323.786 146.989 323.944C148.708 324.215 150.481 324.491 152.186 324.916C153.856 325.295 155.461 325.92 156.948 326.768C158.568 327.792 159.861 329.26 160.67 330.997C161.496 332.747 162.17 334.566 162.684 336.432C162.836 336.929 162.993 337.438 163.153 337.935C164.659 342.61 166.148 347.369 167.579 352.079C173.354 371.086 178.588 390.181 183.138 408.835C184.762 415.494 186.282 422.292 187.751 428.866V428.869V428.875C188.368 431.636 189.007 434.492 189.645 437.298C191.334 444.736 193.316 452.719 195.883 462.423C195.586 462.196 195.241 462.039 194.874 461.965C185.808 460.038 176.437 458.996 167.375 457.987C165.479 457.776 163.518 457.558 161.582 457.333L160.505 457.208C149.572 455.924 137.819 454.551 125.954 453.219L49.6728 444.65C48.3988 444.507 47.0749 444.397 45.7954 444.289C42.5109 444.018 39.1156 443.734 35.9764 442.869C32.6579 441.954 30.1908 439.737 28.4345 436.092C26.9614 433.033 26.2242 429.519 25.5399 425.886L25.5019 425.686C23.25 413.722 21.2396 401.494 19.2953 389.67V389.661C17.9909 381.726 16.6417 373.522 15.2292 365.456L4.97144 308.344ZM198.7 461.412H198.689C198.074 461.398 197.469 461.577 196.961 461.924L194.111 439.172C195.559 439.077 197.253 438.386 198.894 437.718C200.493 437.067 202.004 436.453 203.134 436.453C203.216 436.453 203.297 436.456 203.373 436.463C202.064 438.657 201.716 440.891 202.341 443.104C203.076 445.71 204.899 447.031 207.758 447.031C209.427 446.98 211.077 446.663 212.646 446.091C214.106 445.587 215.53 444.984 216.908 444.288C217.664 443.913 218.424 443.513 219.16 443.126C221.729 441.776 224.384 440.379 227.29 439.768C228.037 439.608 228.797 439.527 229.56 439.523C232.497 439.523 234.852 440.804 237.582 442.286L237.98 442.502C240.928 444.108 244.114 445.232 247.417 445.832C248.523 446.03 249.644 446.127 250.767 446.124C251.326 446.124 251.89 446.102 252.492 446.058C252.597 446.144 252.712 446.22 252.833 446.283L253.711 446.744C249.731 446.925 245.622 448.171 241.997 449.271C238.011 450.479 234.059 451.965 230.667 453.263L226.988 454.675C222.472 456.472 217.864 458.029 213.184 459.341C208.509 460.658 203.682 461.356 198.825 461.414L198.7 461.412ZM300.095 217.896C300.949 218.388 301.728 219.002 302.405 219.718C304.579 222.022 306.145 224.876 307.659 227.637L307.749 227.802C308.126 228.49 308.499 229.183 308.858 229.854L308.863 229.863C309.303 230.683 309.758 231.531 310.217 232.358C310.614 233.075 311.022 233.78 311.334 234.315C311.497 234.562 311.675 234.8 311.865 235.028V235.028C312.018 235.22 312.176 235.419 312.285 235.573C312.019 235.944 311.729 236.333 311.4 236.759C311.376 236.789 311.038 237.162 310.475 237.78L310.452 237.805C308.152 240.335 302.763 246.253 300.562 248.946C298.407 251.579 296.383 254.274 294.546 256.957C292.638 259.743 290.866 262.609 289.281 265.476C287.4 268.877 285.757 272.457 284.17 275.919C283.077 278.301 281.946 280.764 280.746 283.153C279.324 286.129 277.575 288.938 275.533 291.53C275.485 291.588 275.434 291.646 275.386 291.702L275.382 291.705L275.377 291.712C275.345 291.747 275.314 291.783 275.283 291.82C274.633 290.066 273.162 288.216 272.088 286.865C271.845 286.56 271.616 286.272 271.426 286.022L271.332 285.897C269.286 283.141 267.011 280.285 264.173 276.906C261.985 274.304 259.656 271.655 257.253 269.035L256.364 268.07C256.065 267.747 255.757 267.403 255.432 267.038C253.988 265.42 252.192 263.406 250.215 262.365C250.483 261.89 250.784 261.434 251.116 261.001C253.444 257.962 256.777 255.785 259.718 253.983L261.761 252.741C267.828 249.05 271.021 246.895 273.127 245.429C276.841 242.873 280.383 240.078 283.731 237.06C286.927 234.148 290.615 230.64 293.73 226.702L294.782 225.373L300.095 217.896ZM287.245 215.573C288.089 215.644 288.967 215.696 289.816 215.745C292.624 215.909 295.526 216.079 298.078 216.977C296.317 218.64 294.582 220.408 292.905 222.117C291.762 223.282 290.581 224.486 289.406 225.641C289.174 224.126 288.861 222.625 288.468 221.143C288.371 220.749 288.271 220.342 288.176 219.94L287.245 215.573ZM288.171 509.199C288.483 509.183 288.787 509.09 289.054 508.926C289.321 508.763 289.542 508.535 289.697 508.263C289.864 508.003 289.96 507.702 289.974 507.393C289.987 507.084 289.919 506.776 289.776 506.502C285.426 498.213 280.299 490.34 275.406 483.067L274.737 482.073C272.434 478.649 270.054 475.11 267.687 471.641C266.41 469.769 265.362 468.271 264.388 466.925L263.71 465.996L260.039 461.983C259.99 461.957 259.936 461.943 259.88 461.943C259.796 461.943 259.716 461.977 259.656 462.036C259.597 462.095 259.562 462.175 259.56 462.259C259.496 463.868 260.239 465.433 260.956 466.946C261.064 467.174 261.187 467.433 261.298 467.676L261.38 467.856C262.227 469.738 263.222 471.763 264.421 474.048C266.605 478.207 268.846 482.259 271.083 486.09C276.267 494.973 281.477 502.347 287.012 508.634C287.152 508.807 287.329 508.947 287.529 509.045C287.729 509.143 287.948 509.196 288.171 509.2V509.199ZM195.341 428.782C197.27 428.782 199.126 427.796 201.183 425.677L202.565 424.235C203.451 423.249 204.467 422.387 205.585 421.673C206.782 420.963 208.155 420.601 209.547 420.629C209.668 420.629 209.792 420.631 209.917 420.635C212.27 420.771 214.613 421.049 216.933 421.466H216.936C218.261 421.678 219.631 421.896 220.974 422.054C224.967 422.525 229.165 422.953 233.45 423.324H233.466C233.504 423.323 233.541 423.307 233.568 423.281C233.595 423.254 233.612 423.218 233.614 423.18C233.621 423.139 233.613 423.097 233.591 423.062C233.569 423.027 233.535 423.002 233.496 422.991L228.828 421.83L210.681 418.174C210.061 418.096 209.437 418.056 208.812 418.054C206.601 417.987 204.438 418.714 202.716 420.102C201.876 420.822 201.087 421.599 200.354 422.429C199.507 423.405 198.568 424.297 197.55 425.094C196.509 425.888 195.257 426.359 193.951 426.449C193.691 426.463 193.444 426.568 193.255 426.747C193.066 426.926 192.948 427.166 192.921 427.425C192.888 427.668 192.946 427.916 193.084 428.119C193.222 428.323 193.43 428.468 193.668 428.528C194.211 428.693 194.774 428.778 195.341 428.782V428.782ZM191.732 417.439C191.787 417.439 191.842 417.432 191.896 417.419C193.341 417.053 194.722 416.469 195.992 415.688C197.258 414.907 198.483 414.063 199.664 413.159C200.572 412.486 201.511 411.792 202.471 411.165C204.609 409.771 206.933 409.149 210.007 409.149C211.466 409.149 212.947 409.281 214.51 409.42L214.785 409.444C219.275 409.844 223.584 410.388 227.593 411.062C228.976 411.294 230.382 411.578 231.743 411.852C234.336 412.426 236.961 412.851 239.604 413.126V413.117C239.719 413.111 239.83 413.067 239.918 412.992C240.006 412.917 240.067 412.814 240.09 412.701C240.118 412.602 240.109 412.497 240.066 412.404C240.024 412.311 239.95 412.236 239.857 412.193C235.86 410.199 231.297 409.244 226.885 408.32L226.594 408.259L213.505 406.226L213.023 406.179C211.507 406.031 210.35 405.966 209.269 405.966C207.872 405.95 206.477 406.097 205.114 406.402C203.695 406.73 202.339 407.28 201.094 408.034L200.366 408.473C197.003 410.515 193.234 412.977 191.082 416.36C191.017 416.459 190.98 416.575 190.977 416.694C190.973 416.812 191.002 416.93 191.061 417.033C191.127 417.154 191.224 417.255 191.342 417.326C191.46 417.398 191.595 417.436 191.732 417.439V417.439ZM83.3408 398.922C86.0177 398.97 88.6885 398.654 91.2797 397.981C92.5225 397.641 93.7163 397.142 94.832 396.498C95.9185 395.867 96.8811 395.044 97.6727 394.069C98.9518 392.471 99.4204 390.864 99.0653 389.295C98.6904 387.924 97.904 386.7 96.812 385.789C95.6335 384.751 94.3136 383.885 92.8917 383.217C93.4541 382.718 93.8753 382.081 94.1128 381.368C94.3467 380.633 94.3299 379.842 94.0649 379.118C93.4385 377.341 91.7809 376.26 90.1784 375.214C89.2971 374.683 88.4705 374.066 87.7108 373.372C86.5192 372.216 85.5746 370.831 84.9342 369.3C84.2942 367.773 84.1094 366.095 84.4019 364.466L84.438 364.285C84.501 364.03 84.5052 363.763 84.4504 363.506C84.3955 363.249 84.2831 363.007 84.1215 362.8C83.9588 362.605 83.7552 362.449 83.5252 362.342C83.2951 362.235 83.0442 362.18 82.7904 362.181C82.4986 362.184 82.2118 362.257 81.9543 362.394C81.6969 362.532 81.4762 362.729 81.3109 362.969L81.0731 363.297C80.8139 363.652 80.5466 364.01 80.2639 364.39L80.2558 364.401C79.0065 365.998 77.8738 367.684 76.8664 369.444C75.7637 371.492 75.2626 373.3 75.3331 374.973C74.2472 375.007 73.1895 375.327 72.2662 375.898C71.3458 376.442 70.615 377.255 70.173 378.227C69.789 379.187 69.6421 380.225 69.7447 381.254C67.7524 381.408 65.6407 382.737 64.5218 383.906C63.5908 384.862 63.0199 386.111 62.9062 387.441C62.8068 388.769 63.124 390.095 63.8135 391.235C67.2255 397.039 74.9315 398.445 79.2214 398.766L79.4227 398.781C80.8428 398.875 82.1242 398.922 83.3412 398.922L83.3408 398.922ZM91.5438 384.114C92.6746 385.267 93.7736 386.463 94.8369 387.618C95.22 387.981 95.5177 388.425 95.7086 388.917C95.8996 389.409 95.9791 389.937 95.9414 390.464C95.8179 391.548 95.0898 392.578 93.8365 393.437C92.3644 394.394 90.7086 395.035 88.9749 395.317C87.1744 395.634 85.348 395.782 83.5199 395.757H83.5176C82.391 395.757 81.2951 395.717 80.4666 395.681C78.295 395.612 76.1399 395.281 74.0482 394.694C71.9534 394.114 70.0044 393.1 68.3286 391.718L68.1839 391.591C67.5689 391.054 67.0376 390.428 66.6072 389.735C66.1925 389.118 65.9901 388.384 66.0306 387.642C66.095 387.225 66.2624 386.831 66.5177 386.495C66.773 386.159 67.1081 385.891 67.4928 385.717C68.1693 385.379 68.9006 385.164 69.6525 385.082C70.0316 385.027 70.4074 384.95 70.7777 384.852C71.8379 386.928 73.4539 388.272 75.2101 388.541C75.295 388.554 75.3807 388.56 75.4665 388.56C75.8099 388.56 76.1442 388.451 76.4209 388.248C76.6975 388.044 76.9019 387.758 77.0043 387.431C77.0906 387.148 77.0787 386.845 76.9705 386.57C76.8624 386.295 76.6644 386.065 76.4087 385.916L76.0921 385.721C75.1971 385.169 74.4214 384.445 73.8103 383.59C73.1887 382.724 72.8607 381.682 72.8741 380.616C72.9235 379.963 73.2041 379.348 73.6656 378.883C73.8754 378.635 74.1333 378.431 74.4238 378.285C74.7144 378.139 75.0315 378.052 75.3562 378.032C75.5737 378.033 75.7885 378.08 75.987 378.169C76.1854 378.257 76.3633 378.387 76.5091 378.548L76.5742 378.618C76.7 378.77 76.8574 378.892 77.0355 378.977C77.2135 379.061 77.4078 379.106 77.6049 379.108C77.893 379.097 78.1736 379.014 78.4208 378.866C78.6679 378.717 78.8736 378.509 79.0188 378.26C79.1581 378.042 79.2371 377.79 79.2478 377.531C79.2584 377.272 79.2003 377.015 79.0794 376.785L79.0414 376.718L81.2309 368.525C81.5589 369.929 82.1085 371.271 82.8591 372.501C83.6264 373.76 84.5685 374.905 85.6574 375.9C86.5008 376.674 87.4192 377.363 88.3991 377.955L88.5172 378.024C88.6452 378.095 88.8085 378.18 88.9663 378.263C89.974 378.789 91.4968 379.583 91.3562 380.516C91.2503 381.217 89.9184 382.052 89.3503 382.378C88.3222 382.969 87.2331 383.398 86.7605 383.398C86.7049 383.401 86.6521 383.423 86.6106 383.461C86.5692 383.498 86.5415 383.548 86.5321 383.603C86.52 383.648 86.5245 383.696 86.5449 383.738C86.5652 383.78 86.6 383.814 86.6429 383.832C87.55 384.284 88.5425 384.538 89.5552 384.579C90.2449 384.578 90.9251 384.418 91.5438 384.114V384.114ZM346.873 360.11C347.193 360.131 347.509 360.03 347.758 359.827C348.006 359.624 348.168 359.335 348.211 359.017C349.028 353.762 349.839 348.426 350.628 343.266V343.26C351.558 337.161 352.519 330.85 353.491 324.649C354.183 320.237 354.974 315.765 355.74 311.44V311.433C355.972 310.123 356.212 308.764 356.449 307.412L358.985 290.829C358.986 290.788 358.979 290.746 358.963 290.707C358.948 290.668 358.924 290.633 358.895 290.603C358.826 290.536 358.733 290.497 358.636 290.497C358.578 290.496 358.521 290.51 358.471 290.539C358.421 290.568 358.38 290.609 358.352 290.659C355.88 295.003 354.486 300.14 353.138 305.107C352.985 305.671 352.827 306.254 352.67 306.824C351.298 311.813 350.057 317.207 348.765 323.799C347.628 329.594 346.755 335.422 346.168 341.122C345.573 346.912 345.251 352.796 345.21 358.612C345.207 358.797 345.242 358.98 345.312 359.15C345.382 359.321 345.486 359.476 345.617 359.606C345.954 359.931 346.404 360.112 346.873 360.11V360.11ZM328.254 343.626C328.535 343.623 328.811 343.559 329.065 343.44C329.32 343.321 329.545 343.149 329.727 342.935C329.896 342.732 330.016 342.493 330.079 342.237C330.142 341.98 330.145 341.713 330.088 341.455L331.621 299.288C331.648 299.216 331.657 299.138 331.647 299.062C331.637 298.985 331.608 298.912 331.564 298.849C331.512 298.785 331.446 298.733 331.371 298.698C331.296 298.663 331.214 298.646 331.131 298.648C331.016 298.646 330.903 298.679 330.808 298.743C330.713 298.808 330.639 298.9 330.598 299.007C329.205 302.421 328.054 305.929 327.153 309.504C326.25 313.088 325.613 316.733 325.25 320.411C324.488 327.763 324.99 335.192 326.733 342.376C326.797 342.73 326.985 343.05 327.264 343.279C327.542 343.508 327.893 343.631 328.254 343.625V343.626ZM243.561 304.89C243.693 304.894 243.824 304.867 243.943 304.811C244.063 304.755 244.167 304.671 244.249 304.567C244.466 304.278 244.667 303.976 244.851 303.664C245.163 303.061 245.6 302.53 246.132 302.107C246.994 301.497 248.072 301.28 249.117 301.071C249.579 300.979 250.056 300.882 250.501 300.755C252.336 300.244 254.002 299.253 255.326 297.883L260.063 287.206C260.068 287.149 260.062 287.092 260.044 287.038C260.026 286.984 259.997 286.935 259.959 286.893C259.915 286.849 259.862 286.814 259.804 286.792C259.746 286.769 259.684 286.758 259.622 286.759C259.539 286.758 259.457 286.776 259.383 286.813C259.308 286.849 259.243 286.903 259.194 286.97C258.422 288.109 257.723 289.296 257.103 290.523C256.398 291.95 255.569 293.312 254.625 294.594C253.65 295.887 252.352 296.901 250.861 297.534C249.975 297.871 249.061 298.128 248.13 298.302C246.683 298.618 245.186 298.942 243.933 299.935C243.243 300.456 242.698 301.144 242.35 301.934C242.181 302.322 242.111 302.746 242.147 303.167C242.182 303.588 242.321 303.995 242.551 304.349C242.664 304.514 242.814 304.649 242.99 304.743C243.165 304.837 243.361 304.888 243.561 304.89V304.89ZM235.577 296.761C235.738 296.763 235.897 296.734 236.046 296.673C236.195 296.613 236.331 296.524 236.445 296.411C237.683 295.1 237.948 293.148 237.232 290.604C236.593 288.591 235.707 286.665 234.595 284.869C232.595 281.474 229.863 279.121 226.972 276.628C226.424 276.156 225.858 275.668 225.293 275.169C221.482 271.802 219.04 267.192 216.885 263.124C216.251 261.933 215.621 260.709 215.009 259.525L214.997 259.5L214.99 259.488C214.241 258.038 213.467 256.538 212.684 255.075C213.959 253.949 214.503 251.848 214.94 250.159C215.018 249.859 215.091 249.576 215.166 249.305L215.212 249.142C216.06 246.214 216.702 243.23 217.134 240.213C217.546 237.346 217.702 234.449 217.601 231.555L217.57 230.814L216.145 225.497C216.065 225.455 215.977 225.433 215.888 225.432C215.799 225.435 215.712 225.459 215.634 225.502C215.556 225.546 215.49 225.607 215.44 225.681C215.38 225.742 215.334 225.814 215.306 225.895C215.277 225.975 215.266 226.06 215.274 226.145C215.283 226.229 215.309 226.311 215.353 226.384C215.397 226.458 215.456 226.52 215.526 226.568C215.127 227.607 214.809 228.676 214.577 229.765C214.312 230.934 214.024 232.128 213.697 233.414C213.388 234.632 213.094 235.874 212.808 237.074L212.805 237.089L212.802 237.1C212.516 238.306 212.22 239.553 211.91 240.775C211.284 243.235 210.504 245.824 209.59 248.468C209.538 248.619 209.478 248.784 209.407 248.969L209.307 249.225L209.283 249.186C209.26 249.146 209.228 249.112 209.189 249.089C209.149 249.065 209.105 249.052 209.059 249.051C209.019 249.051 208.979 249.061 208.943 249.078C208.907 249.095 208.875 249.12 208.849 249.151C208.82 249.184 208.799 249.224 208.786 249.267C208.774 249.309 208.772 249.354 208.779 249.398C208.804 249.562 208.834 249.728 208.863 249.889V249.894V249.905C208.881 250.004 208.9 250.107 208.917 250.208L208.827 250.449C208.252 251.993 207.865 253.609 208.913 254.963C209.23 255.43 209.72 255.753 210.275 255.86C211.152 258.686 212.188 261.46 213.38 264.168L213.72 264.95C215.355 268.7 217.184 272.642 219.959 276.042C221.266 277.566 222.684 278.991 224.201 280.307C226.124 282.058 228.113 283.869 229.583 286.135C230.746 287.968 231.659 289.949 232.297 292.024L232.552 292.818C233.039 294.315 233.592 295.732 234.978 296.597C235.158 296.707 235.366 296.764 235.577 296.761ZM212.144 292.725C212.732 292.733 213.305 292.537 213.764 292.168L216.869 289.593C217.391 289.16 217.912 288.724 218.417 288.3C218.889 287.903 219.318 287.536 219.729 287.177L220.377 286.606C220.451 286.54 220.587 286.4 220.76 286.222C221.264 285.704 222.026 284.92 222.301 284.877C222.328 284.872 222.355 284.87 222.383 284.87C223.208 284.87 224.862 286.593 225.75 287.518L225.753 287.52C225.872 287.644 225.975 287.751 226.059 287.837L226.151 287.927C227.516 289.272 228.776 290.719 229.921 292.254C229.947 292.292 229.983 292.323 230.024 292.345C230.065 292.367 230.11 292.379 230.157 292.38C230.203 292.38 230.248 292.368 230.289 292.346C230.329 292.324 230.364 292.292 230.389 292.254C230.414 292.212 230.428 292.165 230.429 292.116C230.431 292.067 230.419 292.019 230.397 291.976C229.376 289.759 228.147 287.644 226.727 285.659L226.438 285.264C226.277 285.047 226.106 284.802 225.926 284.541L225.918 284.53C225.028 283.25 223.922 281.658 222.531 281.345C222.333 281.3 222.13 281.278 221.927 281.278C220.402 281.278 218.891 282.505 217.676 283.492C217.418 283.702 217.174 283.899 216.942 284.077L216.848 284.148C216.075 284.728 215.313 285.317 214.737 285.766C214.796 283.84 214.652 281.913 214.307 280.018C213.968 278.132 213.297 276.322 212.325 274.67C211.299 273.103 210.091 271.662 208.727 270.378C208.152 269.794 207.559 269.19 207.002 268.568C205.952 267.315 205.031 265.96 204.254 264.522C203.618 263.376 202.906 262.273 202.124 261.22C201.902 260.937 201.577 260.752 201.219 260.706C201.165 259.242 200.983 257.751 200.807 256.31L200.805 256.289C200.755 255.887 200.705 255.471 200.658 255.064L200.596 254.508C200.564 254.216 200.528 253.923 200.489 253.612C200.263 251.799 200.009 249.745 200.858 248.123C201.606 246.694 203.154 245.582 204.521 244.599C204.877 244.343 205.213 244.102 205.532 243.858L206.831 242.852L210.581 239.272C210.638 239.2 210.672 239.113 210.68 239.022C210.688 238.931 210.67 238.839 210.626 238.758C210.567 238.649 210.48 238.558 210.374 238.494C210.268 238.429 210.147 238.393 210.023 238.39C209.985 238.39 209.947 238.394 209.91 238.401C207.559 238.887 205.286 240.151 203.088 241.375C202.744 241.566 202.353 241.784 201.98 241.987L201.716 242.13C199.835 243.143 197.77 244.462 196.714 246.566C195.615 248.756 195.669 251.259 195.833 253.844L195.847 254.073C195.887 254.699 195.921 255.343 195.954 255.965V255.978C196.014 258.308 196.259 260.63 196.686 262.921C196.776 263.421 197.049 263.869 197.451 264.179C197.818 264.445 198.262 264.584 198.715 264.576C198.974 264.575 199.231 264.536 199.479 264.46C200.483 267.622 202.833 270.18 205.107 272.652C205.895 273.51 206.71 274.395 207.437 275.277C208.934 277.093 209.811 279.341 210.12 282.151C210.391 284.627 210.2 287.202 210.015 289.691C209.993 289.992 209.971 290.292 209.949 290.591C209.922 290.853 209.951 291.117 210.033 291.367C210.115 291.617 210.249 291.847 210.426 292.042C210.651 292.267 210.919 292.443 211.215 292.561C211.51 292.678 211.826 292.734 212.144 292.725V292.725Z" fill="black"/>
<path d="M226.655 222.823C247.225 222.823 267.492 216.187 283.722 204.139C284.585 203.535 285.235 202.673 285.577 201.677C285.847 200.826 285.837 199.91 285.548 199.065C287.15 197.687 288.631 196.174 289.973 194.542C291.336 192.886 292.559 191.119 293.629 189.26C294.703 187.395 295.615 185.442 296.355 183.422C297.09 181.414 297.637 179.342 297.988 177.233C298.074 176.965 298.218 176.72 298.411 176.515C298.604 176.31 298.84 176.15 299.103 176.048C299.665 175.825 300.252 175.669 300.851 175.582C301.117 175.532 301.369 175.485 301.612 175.428C305.732 174.7 310.46 173.672 314.287 171.559C316.163 170.563 317.818 169.196 319.15 167.542C319.816 166.688 320.37 165.753 320.8 164.759C321.264 163.672 321.591 162.532 321.771 161.364C321.983 159.452 321.978 157.523 321.756 155.613C321.555 153.936 321.179 152.284 320.636 150.685C319.606 147.616 318.071 144.888 316.587 142.251C315.624 140.539 314.628 138.77 313.798 136.948C312.928 135.091 312.285 133.136 311.885 131.125C311.455 128.84 311.388 126.501 311.687 124.195C312.088 121.229 312.88 118.329 314.042 115.571C315.52 109.958 318.449 103.424 321.55 96.5059C323.589 91.9565 325.698 87.2525 327.512 82.5459C329.325 78.0268 330.727 73.3534 331.7 68.5828C332.127 66.3784 332.375 64.1433 332.441 61.8991C332.503 59.7777 332.326 57.6561 331.913 55.5742C331.078 51.3616 329 47.4949 325.947 44.4713C324.371 42.9062 322.527 41.6362 320.503 40.7215C318.511 39.812 316.349 39.3346 314.159 39.321C313.214 39.3204 312.272 39.4176 311.348 39.611C288.36 28.7113 263.234 23.0514 237.787 23.0407C224.779 23.0292 211.815 24.5487 199.163 27.568L198.648 27.6908C195.982 28.2755 193.351 29.0088 190.766 29.8874C188.185 30.7595 185.779 32.0802 183.658 33.7885C182.531 34.6608 181.654 35.8138 181.115 37.1317C180.721 38.2196 180.651 39.3985 180.913 40.5254C181.392 42.8115 182.917 45.1295 184.532 47.5831C185.843 49.5737 187.196 51.632 188.038 53.7703C188.466 54.8157 188.739 55.9179 188.849 57.042C188.955 58.1923 188.829 59.3521 188.481 60.4534C187.693 61.5531 186.294 63.7844 184.739 66.4219C183.448 68.6099 181.443 72.1053 179.215 76.3335C175.892 82.6372 171.624 91.4315 170.157 97.5305C168.685 103.649 167.723 106.882 167.374 106.882C167.321 106.882 167.293 106.809 167.276 106.754C167.269 106.731 167.263 106.708 167.258 106.688C167.249 106.651 167.243 106.625 167.235 106.625C167.163 106.955 167.118 107.29 167.1 107.627C166.964 108.811 166.685 111.276 166.051 116.271C165.282 122.338 164.336 130.358 163.853 138.591C163.36 146.074 163.407 153.582 163.994 161.058C164.302 164.738 164.802 168.398 165.492 172.025C166.178 175.619 167.095 179.165 168.236 182.642C169.382 186.123 170.79 189.514 172.446 192.784C174.142 196.12 176.115 199.31 178.342 202.319C179.724 203.951 181.206 205.494 182.781 206.941C185.418 209.365 188.276 211.537 191.317 213.43C195.35 215.938 199.666 217.96 204.174 219.455C209.804 221.303 215.657 222.39 221.576 222.686C223.258 222.777 224.966 222.823 226.655 222.823ZM327.888 61.7044C327.789 63.6503 327.528 65.5846 327.107 67.4872C326.704 66.0576 326.196 64.6598 325.586 63.3051C326.521 63.0634 327.337 62.4955 327.888 61.7044V61.7044ZM313.887 40.825C315.534 41.1367 317.113 41.7375 318.55 42.5996C320.018 43.4747 321.353 44.5562 322.512 45.8108C319.774 43.9241 316.89 42.257 313.887 40.825V40.825Z" fill="white"/>
<path d="M221.508 229.202C227.806 229.2 234.063 228.183 240.037 226.191C243.018 225.197 245.912 223.959 248.689 222.49C251.472 221.017 254.122 219.307 256.611 217.379C257.174 216.96 257.582 216.367 257.772 215.693C257.962 215.018 257.924 214.3 257.662 213.649C257.361 212.795 256.829 212.042 256.124 211.472C255.446 210.896 254.591 210.569 253.701 210.545C253.021 210.547 252.359 210.763 251.808 211.162C247.197 214.401 242.129 216.939 236.771 218.692C231.479 220.433 225.943 221.327 220.371 221.339C213.99 221.356 207.669 220.112 201.772 217.68C198.455 216.303 195.305 214.555 192.382 212.471C189.443 210.378 186.732 207.983 184.293 205.325C181.851 202.667 179.688 199.765 177.84 196.665C176 193.584 174.496 190.315 173.355 186.914C170.742 179.088 169.803 170.71 168.894 162.608C168.809 161.846 168.713 160.982 168.616 160.139L168.547 159.541C167.991 154.733 167.566 149.982 167.284 145.42C166.986 140.605 166.837 135.838 166.842 131.251C166.846 126.684 167.016 122.546 167.365 118.598C167.708 114.595 168.282 110.616 169.084 106.68C169.888 102.745 170.945 98.8672 172.248 95.0688C173.626 91.0607 175.25 87.1413 177.111 83.3329C180.734 75.8409 185.448 68.926 191.1 62.8131C191.529 62.8977 191.967 62.9386 192.405 62.9351C193.272 62.9119 194.136 62.8246 194.99 62.6739H194.992C195.442 62.6062 195.906 62.5384 196.355 62.4878C197.344 62.3816 198.21 62.2945 199.001 62.2213C198.139 62.7779 197.272 63.3688 196.348 64.0284L195.209 64.8488C195.031 64.9762 194.851 65.1044 194.669 65.2333L194.641 65.2532C192.873 66.5096 191.045 67.8084 189.718 69.4122C188.201 71.2465 187.651 73.1503 188.038 75.2334C188.193 75.9306 188.557 76.5641 189.082 77.0496C189.587 77.5515 190.216 77.9114 190.905 78.0932C191.375 78.2062 191.857 78.264 192.341 78.2653C193.832 78.2203 195.274 77.7205 196.472 76.8332C197.737 75.9167 198.92 74.8939 200.011 73.776C200.677 73.1308 201.307 72.5214 201.946 71.977C204.712 69.6182 207.566 67.5387 210.489 65.4397C211.258 64.8899 211.898 64.439 212.498 64.0212C211.89 64.7282 211.268 65.4831 210.648 66.2633L209.76 67.3878C209.609 67.5779 209.453 67.7709 209.294 67.967C207.977 69.6006 206.484 71.452 205.606 73.4042C204.592 75.6581 204.588 77.6414 205.591 79.4675C205.938 80.0783 206.443 80.584 207.054 80.9308C207.659 81.2889 208.348 81.4809 209.052 81.4874H209.119C210.841 81.4517 212.346 80.7248 213.718 79.2646C214.925 77.9802 215.866 76.3249 216.777 74.7247C217.234 73.9205 217.666 73.1606 218.119 72.4699C220.164 69.3585 222.422 66.4097 224.361 63.9358C225.051 63.0593 225.631 62.3315 226.183 61.6452C236.318 62.1711 246.394 63.5082 256.314 65.6435C262.326 66.9392 268.731 68.6704 276.473 71.0965L277.025 71.2722C280.421 72.3642 284.252 73.8333 286.925 76.4505C287.309 78.2658 286.988 80.1601 286.657 81.7932L286.381 83.131C285.795 85.8915 285.357 88.6815 285.069 91.4889C284.784 94.3044 284.777 97.141 285.047 99.9579C285.674 106.127 287.613 111.655 289.615 116.71C289.917 117.497 290.355 118.225 290.909 118.861C291.602 119.62 292.015 120.592 292.08 121.617C292.29 123.762 292.262 125.924 291.995 128.063L291.835 129.874C291.57 132.276 291.549 134.699 291.772 137.105C291.988 139.506 292.88 141.798 294.346 143.713C294.44 143.826 294.559 143.917 294.693 143.977C294.827 144.037 294.974 144.066 295.121 144.062C295.337 144.063 295.55 144.01 295.74 143.907C295.93 143.804 296.092 143.655 296.209 143.474C296.343 143.236 296.49 143.006 296.648 142.783C297.379 141.729 298.333 140.848 299.442 140.203C300.57 139.556 301.803 139.113 303.084 138.893C303.14 138.888 303.192 138.862 303.229 138.82C303.266 138.778 303.285 138.723 303.283 138.667C303.28 138.591 303.251 138.518 303.201 138.46C303.151 138.402 303.082 138.364 303.007 138.351C300.86 138.096 298.691 138.607 296.883 139.792C297.227 138.605 298.539 138.003 300.783 138.003C302.705 138.064 304.614 138.35 306.469 138.855L306.544 138.875C309.244 139.58 311.787 140.787 314.038 142.434C315.153 143.258 316.167 144.209 317.06 145.27C317.934 146.31 318.682 147.451 319.287 148.668C320.509 151.133 321.112 153.857 321.044 156.607C320.988 159.316 320.246 161.966 318.888 164.312C318.216 165.464 317.391 166.521 316.437 167.454C315.461 168.406 314.356 169.218 313.155 169.865C310.826 171.1 308.228 171.74 305.592 171.727H305.421C304.155 171.674 302.899 171.489 301.672 171.176C300.433 170.858 299.163 170.675 297.884 170.631C297.701 170.631 297.517 170.636 297.338 170.647C296.921 170.676 296.518 170.81 296.167 171.037C295.816 171.264 295.528 171.576 295.331 171.945C295.162 172.264 295.081 172.621 295.096 172.981C295.111 173.342 295.222 173.691 295.416 173.995C296.018 174.968 296.831 175.794 297.795 176.412C295.483 181.698 292.602 186.717 289.202 191.38C287.332 193.955 285.217 196.344 282.888 198.513C282.357 198.984 281.803 199.428 281.228 199.844C280.257 200.527 279.353 201.301 278.528 202.155C277.663 203.128 277.278 204.062 277.352 205.01C277.369 205.464 277.525 205.902 277.801 206.264C278.076 206.627 278.456 206.895 278.89 207.033C279.238 207.175 279.61 207.246 279.985 207.245C282.352 207.245 284.951 204.553 286.671 202.773C286.865 202.572 287.065 202.366 287.246 202.181L287.402 202.024C289.825 199.611 292.014 196.973 293.938 194.145C295.619 191.666 297.008 189 298.077 186.202C299.138 183.414 299.891 180.519 300.322 177.569C301.753 177.977 303.237 178.175 304.726 178.156C306.566 178.145 308.4 177.926 310.191 177.504C311.811 177.139 313.392 176.616 314.91 175.944C316.329 175.304 317.666 174.497 318.893 173.541C320.088 172.607 321.175 171.542 322.132 170.365C323.081 169.197 323.906 167.932 324.592 166.592C325.279 165.249 325.831 163.842 326.241 162.39C327.114 159.3 327.34 156.063 326.905 152.882C326.684 151.287 326.287 149.72 325.722 148.212C324.273 144.343 321.695 140.998 318.321 138.61C318.773 138.364 319.183 138.048 319.537 137.675C321.355 135.745 322.69 133.299 323.98 130.934C324.136 130.646 324.278 130.388 324.418 130.132L324.589 129.822C325.852 127.544 327.053 125.211 328.159 122.884L328.573 122.002C329.523 119.962 330.418 118.378 331.283 116.846C332.84 114.276 334.096 111.536 335.027 108.679C336.752 103.254 338.066 97.7071 338.958 92.0852L339.189 90.5944C339.7 87.2964 340.167 83.7978 339.803 80.5197C342.087 81.2638 343.322 81.3591 344.145 81.3591C345.274 81.3705 346.39 81.1154 347.401 80.6146C348.25 80.1518 348.902 79.3974 349.236 78.4912C349.612 77.6072 349.672 76.6207 349.405 75.6978C349.031 74.5306 348.35 73.4852 347.433 72.6709C347.95 72.4085 348.433 72.0838 348.871 71.7041L349.247 71.3811C349.988 70.7023 350.441 69.7672 350.516 68.7662C350.619 67.7768 350.423 66.7792 349.954 65.9019C349.871 65.7582 349.781 65.597 349.687 65.4235C349.235 64.6517 348.592 64.0097 347.818 63.5598C347.045 63.11 346.168 62.8677 345.273 62.8565H345.205C345.06 62.8587 344.914 62.8601 344.77 62.8601C344.626 62.8601 344.479 62.8601 344.332 62.8565C345.191 62.6799 346.013 62.3591 346.765 61.9077C347.64 61.3683 348.321 60.5651 348.709 59.614C349.088 58.6991 349.206 57.6975 349.05 56.7199C348.918 55.838 348.545 55.0095 347.973 54.3255C347.35 53.6027 346.514 53.0964 345.584 52.8798C344.865 52.7124 344.13 52.6302 343.392 52.635C342.205 52.6492 341.024 52.8008 339.872 53.0867L339.911 53.065C339.97 53.0316 340.03 52.9973 340.089 52.9602C340.863 52.4804 341.514 51.8266 341.991 51.051C342.486 50.2795 342.726 49.3717 342.676 48.4564C342.639 47.5464 342.406 46.6549 341.993 45.8429C341.545 45.0472 340.886 44.3906 340.089 43.9454C339.266 43.4753 338.333 43.2303 337.386 43.2352C336.477 43.2208 335.584 43.4699 334.815 43.9522C333.464 44.837 332.163 45.7946 330.916 46.821C332.441 44.9484 333.331 43.3518 333.716 41.7972C333.996 40.6998 333.916 39.5416 333.489 38.4927C333.061 37.4437 332.309 36.5593 331.341 35.9693C330.604 35.5285 329.761 35.2944 328.902 35.2916C328.081 35.3009 327.273 35.4948 326.538 35.859C326.632 34.6383 326.284 33.4245 325.556 32.4391C325.012 31.6941 324.319 31.0702 323.521 30.6071C322.747 30.1518 321.868 29.9056 320.97 29.8928C320.112 29.8943 319.272 30.1414 318.55 30.6048C318.114 30.8946 317.711 31.2309 317.347 31.6078C317.554 30.9631 317.662 30.291 317.668 29.6141C317.675 28.9727 317.566 28.3353 317.345 27.7329C317.103 27.1022 316.731 26.5291 316.254 26.0503C315.777 25.5715 315.205 25.1976 314.575 24.9526C313.955 24.6994 313.29 24.5718 312.62 24.5772C311.291 24.5683 310 25.0203 308.966 25.8562C309.098 25.1315 309.065 24.3867 308.87 23.6764C308.676 22.966 308.325 22.3081 307.843 21.7509C307.298 21.1019 306.623 20.575 305.861 20.2044C305.112 19.8343 304.289 19.638 303.454 19.6302C302.588 19.6333 301.74 19.8772 301.005 20.3346C300.27 20.792 299.677 21.4448 299.293 22.2198C298.521 23.6077 297.886 24.8492 297.352 26.0148L297.131 26.5058L297.108 26.4968L297.261 26.1376L297.416 25.7785C297.575 25.4107 297.745 25.0321 297.91 24.6662L297.914 24.6585C298.621 23.0859 299.354 21.4595 299.587 19.7793C299.709 18.9457 299.685 18.0972 299.516 17.2719C299.36 16.5027 299.036 15.7774 298.566 15.1486C298.168 14.6399 297.673 14.2164 297.108 13.903C296.544 13.5897 295.922 13.393 295.279 13.3247C295.074 13.2972 294.867 13.2834 294.66 13.2836C293.86 13.2959 293.072 13.4775 292.348 13.8165C291.623 14.1555 290.979 14.6442 290.458 15.2502C290.569 14.436 290.501 13.6074 290.258 12.8224C290.033 12.0954 289.656 11.4242 289.153 10.8526C288.688 10.3102 288.113 9.8731 287.466 9.57037C286.819 9.26763 286.114 9.10625 285.399 9.09698C284.086 9.11978 282.831 9.64517 281.894 10.5648C280.46 11.8939 279.548 13.7146 278.667 15.4752C278.431 15.9451 278.188 16.4312 277.941 16.8942C277.642 17.4522 277.335 18.0187 277.036 18.5658L277.031 18.5758C276.678 19.2259 276.314 19.8981 275.958 20.5663C275.793 20.3707 275.612 20.1719 275.42 19.9749C276.375 17.0582 277.165 14.0898 277.785 11.0839C278.091 9.7148 277.899 8.28157 277.242 7.04138C276.912 6.42533 276.459 5.88366 275.91 5.44999C275.362 5.01633 274.73 4.69993 274.054 4.52045C273.623 4.4033 273.179 4.34465 272.733 4.34607C271.545 4.35173 270.388 4.72275 269.419 5.40865C268.438 6.07694 267.746 7.09111 267.483 8.24763C267.093 10.1049 266.618 12.0381 266.031 14.1569C265.669 14.0694 265.302 14.003 264.932 13.9581C264.901 13.5786 264.866 13.2073 264.829 12.854L264.687 11.547L264.658 11.2714C264.351 8.36645 264.004 5.07434 262.489 2.61395C262.042 1.86383 261.406 1.24388 260.644 0.815838C259.882 0.3878 259.021 0.166621 258.147 0.174337C256.834 0.174494 255.565 0.649677 254.574 1.51206C254.075 1.95228 253.672 2.49056 253.391 3.09328C253.086 3.75549 252.926 4.47485 252.922 5.20354C252.972 6.85445 253.232 8.49231 253.695 10.0778C253.94 11.0717 254.193 12.1004 254.337 13.1097C254.488 14.165 254.59 15.2958 254.649 16.5658C253.904 12.7267 252.941 8.93312 251.764 5.20354C251.673 4.9013 251.574 4.59364 251.48 4.29637V4.29411L251.47 4.26204C251.428 4.12861 251.386 3.99534 251.344 3.86221C250.998 2.74186 250.31 1.75782 249.376 1.04853C248.455 0.362056 247.336 -0.00605767 246.187 -4.96801e-05C245.955 8.01729e-05 245.724 0.0139591 245.493 0.041514C244.223 0.231599 243.055 0.847497 242.181 1.78809C241.72 2.23717 241.363 2.78216 241.136 3.38442C240.909 3.98669 240.817 4.63149 240.867 5.27312C240.919 5.74975 240.99 6.22547 241.08 6.68719L241.068 6.69125H241.057L241.116 6.86293C241.273 7.65097 241.536 8.414 241.899 9.13086C242.403 10.5987 242.882 12.0602 243.242 13.1698C243.106 13.1639 242.974 13.1612 242.85 13.1612C242.332 13.1604 241.816 13.2071 241.306 13.3008C241.01 12.5432 240.708 11.7742 240.416 11.0292L240.403 10.9954C240.03 10.0466 239.645 9.06626 239.266 8.09629C239.091 7.64857 238.931 7.17963 238.762 6.68312C238.231 5.12177 237.681 3.50757 236.591 2.41697C235.438 1.31715 233.899 0.713909 232.304 0.737254C231.256 0.727068 230.224 0.994904 229.314 1.51341C228.21 2.13082 227.352 3.10771 226.882 4.28101C226.44 5.46495 226.347 6.75055 226.614 7.9856C226.75 8.60441 227.025 9.18413 227.419 9.68069C227.813 10.1773 228.315 10.5776 228.887 10.8512L229.007 10.9131L229.862 12.9371C229.592 12.819 229.316 12.7179 229.034 12.6344C228.592 12.5028 228.137 12.4165 227.677 12.3769C226.589 10.4089 225.333 8.35606 223.724 5.91645C223.199 5.11629 222.49 4.45269 221.656 3.98058C220.85 3.52303 219.939 3.2799 219.012 3.27445C218.088 3.27533 217.182 3.52505 216.389 3.99729C215.735 4.40841 215.17 4.94673 214.729 5.58022C214.288 6.2137 213.978 6.9294 213.82 7.68472C213.667 8.30298 213.645 8.94645 213.757 9.57352C213.868 10.2006 214.11 10.7973 214.467 11.3252C215.568 12.8739 216.701 14.5613 218.139 16.7962C217.936 16.8311 217.736 16.8779 217.538 16.9363C217.446 16.8116 217.349 16.6882 217.253 16.5703C216.135 15.2587 214.894 14.0563 213.548 12.9791C213.334 12.7984 213.114 12.6091 212.893 12.4185C212.336 11.8989 211.838 11.3198 211.407 10.6918C210.722 9.76652 210.014 8.8101 208.863 8.23498C208.081 7.84202 207.219 7.63483 206.344 7.6296C205.517 7.6262 204.701 7.82915 203.972 8.22008C203.21 8.63554 202.577 9.24968 202.138 9.99692C201.541 10.8979 201.216 11.9509 201.2 13.031C201.185 14.111 201.48 15.1728 202.05 16.0905C203.063 17.8904 204.844 19.5046 206.416 20.9286L206.421 20.9331C206.803 21.2797 207.164 21.6072 207.511 21.9329C204.648 20.141 201.675 18.5296 198.611 17.1079C196.523 16.1479 194.908 15.4653 193.373 14.8942C192.506 14.552 191.585 14.3684 190.653 14.3521C189.92 14.3498 189.194 14.4915 188.516 14.7691C187.768 15.0834 187.074 15.5148 186.462 16.0472C185.954 16.5153 185.597 17.1235 185.435 17.7946C185.239 18.4569 185.247 19.1629 185.458 19.8204C185.818 20.8577 186.409 21.8 187.186 22.5763C187.996 23.3246 188.982 23.8562 190.053 24.1218C190.833 24.3364 191.636 24.5221 192.412 24.7014C193.302 24.907 194.221 25.1198 195.115 25.3791C197.912 26.1677 200.643 27.1737 203.282 28.388C203.093 28.5032 202.913 28.6331 202.744 28.7765C200.82 28.1553 198.802 27.5973 196.747 27.1185C193.397 26.3457 189.999 25.7965 186.576 25.4744L185.44 25.3687C185.225 25.3479 185.007 25.3265 184.788 25.3046H184.774C183.503 25.1785 182.19 25.0484 180.897 25.0484C179.561 25.0096 178.229 25.2179 176.969 25.6628C175.695 26.139 174.614 27.021 173.893 28.1725C173.466 28.8847 173.24 29.6991 173.239 30.5294C173.204 31.3609 173.433 32.182 173.893 32.8759C174.571 33.9213 175.532 34.7533 176.665 35.2758C177.825 35.7094 179.06 35.9102 180.298 35.8667C177.497 36.1631 174.619 36.539 171.745 36.9826C169.814 37.2767 167.841 37.6151 165.88 37.9937L164.907 38.1843C164.503 38.2648 164.082 38.3416 163.675 38.4152H163.672C161.637 38.7852 159.533 39.1674 157.841 40.3068C156.898 40.9085 156.161 41.7838 155.728 42.8155C155.371 43.7132 155.302 44.6995 155.529 45.6382C155.786 46.6901 156.363 47.6365 157.181 48.3467C158.089 49.1355 159.215 49.6322 160.41 49.7716C160.711 49.8083 161.013 49.8264 161.315 49.8258C162.843 49.7527 164.356 49.494 165.822 49.0555C166.5 48.8829 167.144 48.7198 167.776 48.5924C170.005 48.1443 172.306 47.7368 174.615 47.3817C175.722 47.2086 176.886 47.046 178.175 46.8847C175.754 47.2198 173.361 47.7332 171.015 48.4208L170.366 48.6168C167.869 49.309 165.459 50.283 163.183 51.52C162.073 52.147 161.059 52.9327 160.176 53.852C159.324 54.745 158.694 55.8251 158.336 57.0055C158.151 57.615 158.108 58.2589 158.211 58.8875C158.314 59.5162 158.56 60.1128 158.931 60.6314C159.36 61.2253 159.917 61.7159 160.561 62.0676C161.205 62.4192 161.919 62.6232 162.651 62.6645C162.773 62.6717 162.898 62.6758 163.021 62.6758C165.023 62.6758 166.791 61.6981 168.502 60.753C168.898 60.5339 169.308 60.3075 169.712 60.0988C171.326 59.2781 173.013 58.6065 174.75 58.0925C176.514 57.5503 178.375 57.0836 180.277 56.701C178.69 57.5678 177.16 58.5326 175.694 59.5896L175.015 60.0893C173.161 61.4677 170.628 63.3557 168.78 65.5744C167.887 66.6042 167.186 67.786 166.711 69.0635C166.26 70.3175 166.192 71.6767 166.514 72.9695C166.762 73.8392 167.272 74.6118 167.974 75.1833C168.656 75.7899 169.529 76.139 170.443 76.17C170.533 76.17 170.627 76.1654 170.717 76.1568C172.264 75.9811 173.73 75.371 174.944 74.3972C176.196 73.3924 177.361 72.2834 178.426 71.082C179.459 69.9178 180.586 68.8409 181.796 67.8622C182.69 67.1845 183.722 66.4779 184.862 65.7569C182.117 69.0471 179.641 72.5521 177.458 76.2382C175.278 79.9162 173.347 83.7361 171.678 87.6723C168.203 95.7894 165.679 104.281 164.156 112.977C163.432 117.098 162.914 121.296 162.57 125.812C162.251 130.006 162.088 134.402 162.073 139.25V139.822C162.062 152.37 162.437 161.843 163.289 170.539C163.705 175.212 164.435 179.853 165.474 184.428C166.511 189.005 168.084 193.444 170.162 197.653C171.962 201.227 174.154 204.591 176.696 207.683C179.256 210.8 182.128 213.647 185.268 216.181C188.407 218.72 191.794 220.938 195.376 222.802C198.926 224.653 202.662 226.126 206.521 227.196C211.404 228.534 216.445 229.208 221.508 229.202V229.202ZM302.796 67.826C302.967 67.8289 303.136 67.8669 303.291 67.9376C303.447 68.0083 303.586 68.1103 303.701 68.2372C304.967 69.5473 305.817 71.1453 306.648 72.8046C306.759 73.0107 306.813 73.2423 306.805 73.476C306.797 73.7097 306.728 73.9371 306.603 74.1351C306.47 74.3496 306.286 74.528 306.067 74.6546C305.849 74.7812 305.602 74.8521 305.35 74.8611C305.128 74.8602 304.911 74.7947 304.725 74.6724C304.54 74.5502 304.395 74.3767 304.307 74.1731L303.951 73.4633C303.428 72.3428 302.76 71.2955 301.965 70.3483L301.784 70.1536C301.598 69.9742 301.471 69.7419 301.421 69.488C301.371 69.2342 301.4 68.9711 301.505 68.7346C301.612 68.4757 301.79 68.2527 302.02 68.0918C302.249 67.9308 302.52 67.8386 302.8 67.826H302.796ZM319.254 65.1343C319.341 65.1345 319.428 65.1419 319.514 65.1565C320.627 65.344 321.753 65.5468 322.842 65.7438C323.931 65.9408 325.05 66.1418 326.157 66.3284C326.304 66.3434 326.446 66.3877 326.575 66.4588C326.704 66.5299 326.818 66.6263 326.909 66.7421C327 66.858 327.067 66.991 327.105 67.1332C327.144 67.2754 327.153 67.4239 327.133 67.5699C327.109 67.9393 326.949 68.2868 326.683 68.5446C326.417 68.8023 326.064 68.952 325.694 68.9645C325.607 68.9643 325.52 68.9569 325.435 68.9424C324.326 68.7558 323.203 68.553 322.117 68.3551C321.03 68.1572 319.9 67.9557 318.792 67.7678C318.645 67.7528 318.503 67.7084 318.374 67.6374C318.245 67.5663 318.131 67.47 318.04 67.3542C317.949 67.2384 317.882 67.1054 317.844 66.9632C317.805 66.8211 317.796 66.6726 317.816 66.5267C317.84 66.1581 318.001 65.8116 318.267 65.5546C318.533 65.2976 318.884 65.1483 319.254 65.1357V65.1343ZM216.854 49.8583C217.156 49.8741 217.442 49.9972 217.661 50.2053C217.88 50.4134 218.017 50.6929 218.048 50.9932C218.102 51.3046 218.055 51.6253 217.912 51.9076C217.747 52.2154 217.467 52.4458 217.133 52.5487C214.841 53.2647 212.599 54.132 210.423 55.1446C210.228 55.2421 210.014 55.2937 209.797 55.2955C209.468 55.2814 209.152 55.1595 208.898 54.9486C208.645 54.7376 208.468 54.4493 208.395 54.1281C208.327 53.865 208.357 53.5863 208.478 53.3431C208.599 53.0999 208.804 52.9085 209.055 52.8039C211.442 51.6877 213.899 50.7294 216.412 49.9351C216.555 49.886 216.704 49.8601 216.854 49.8583V49.8583ZM319.677 46.3195C319.954 46.3361 320.217 46.4499 320.419 46.6411C320.622 46.8322 320.75 47.0883 320.781 47.3645C320.858 47.7017 320.812 48.0554 320.652 48.3618C320.491 48.6682 320.226 48.9073 319.905 49.0361L314.043 51.3777C313.887 51.4427 313.719 51.4774 313.549 51.4798C313.272 51.4631 313.009 51.3493 312.807 51.1584C312.605 50.9675 312.477 50.7116 312.445 50.4357C312.368 50.0985 312.414 49.7448 312.575 49.4384C312.735 49.132 313 48.8929 313.321 48.7641L319.183 46.4221C319.34 46.3569 319.507 46.3221 319.677 46.3195V46.3195ZM196.856 39.6992C197.145 39.7168 197.42 39.8261 197.642 40.0111C197.864 40.1962 198.021 40.4473 198.091 40.7279C198.174 40.9958 198.174 41.2826 198.091 41.5505C197.993 41.8472 197.793 42.0996 197.526 42.263C197.186 42.483 196.81 42.6786 196.447 42.8675C195.877 43.138 195.337 43.4696 194.839 43.8564L194.675 44.0024C194.434 44.2414 194.109 44.3775 193.77 44.3818C193.479 44.3709 193.198 44.2764 192.96 44.1099C192.722 43.9433 192.537 43.7116 192.427 43.4426C192.333 43.2109 192.313 42.9553 192.372 42.7121C192.431 42.4688 192.565 42.2503 192.755 42.0873C193.42 41.5106 194.155 41.0206 194.943 40.6289C195.274 40.4482 195.615 40.2594 195.942 40.0588L196.156 39.9232C196.362 39.7823 196.605 39.7049 196.855 39.7005L196.856 39.6992ZM297.395 162.493C297.769 162.466 298.131 162.348 298.449 162.149C298.767 161.949 299.03 161.674 299.216 161.349C301.282 157.23 305.001 154.134 310.27 152.146C310.294 152.135 310.314 152.117 310.327 152.095C310.341 152.072 310.347 152.046 310.345 152.02C310.343 152 310.335 151.982 310.321 151.967C310.308 151.953 310.289 151.945 310.27 151.943C309.605 151.84 308.934 151.788 308.261 151.788C306.98 151.791 305.707 151.975 304.478 152.336C303.257 152.698 302.085 153.207 300.988 153.854C298.757 155.191 296.808 156.95 295.25 159.031C294.621 159.861 294.997 161.053 295.612 161.809C296.025 162.328 296.57 162.397 297.202 162.478L297.236 162.483C297.288 162.49 297.342 162.493 297.395 162.494V162.493Z" fill="black"/>
<path d="M213.275 188.787C215.517 188.782 217.736 188.339 219.809 187.484C221.333 186.862 222.767 186.039 224.073 185.037C225.384 184.034 226.552 182.857 227.545 181.539C227.85 181.151 228.072 180.705 228.197 180.228C228.321 179.75 228.346 179.253 228.269 178.765C228.088 177.762 227.531 176.866 226.711 176.259C226.055 175.756 225.253 175.477 224.426 175.465C224.255 175.465 224.085 175.478 223.916 175.504C223.436 175.587 222.978 175.769 222.571 176.037C222.165 176.306 221.819 176.655 221.554 177.064L221.414 177.256C220.25 178.847 218.718 180.131 216.948 181C215.568 181.675 214.054 182.028 212.518 182.033C212.151 182.033 211.785 182.012 211.42 181.971C209.686 181.776 208.018 181.19 206.543 180.258C205.035 179.276 203.648 178.12 202.412 176.813C202.116 176.511 201.803 176.184 201.397 175.752C201.198 175.447 200.901 175.218 200.554 175.104C200.377 175.045 200.192 175.016 200.006 175.017C199.706 175.017 199.41 175.089 199.144 175.228C198.878 175.367 198.649 175.568 198.478 175.813C198.253 176.142 198.151 176.538 198.189 176.934C198.319 178.331 198.735 179.687 199.41 180.918C200.095 182.166 200.977 183.297 202.021 184.267C203.199 185.371 204.531 186.299 205.976 187.023C207.36 187.728 208.837 188.234 210.363 188.526C211.324 188.701 212.298 188.788 213.275 188.787V188.787ZM208.677 162.773C210.607 162.742 212.515 162.358 214.307 161.639C216.672 160.69 218.899 159.428 220.928 157.886C221.398 157.52 221.725 157.001 221.852 156.419C221.961 155.868 221.916 155.297 221.721 154.77C221.498 154.145 221.114 153.589 220.606 153.161C220.125 152.737 219.51 152.497 218.869 152.483C218.39 152.487 217.924 152.63 217.525 152.895C217.383 153.004 217.233 153.12 217.077 153.24L217.072 153.244C215.76 154.3 214.375 155.262 212.927 156.123C211.054 157.188 209.429 157.704 207.959 157.704C207.239 157.709 206.525 157.569 205.86 157.292C205.12 156.97 204.455 156.499 203.906 155.909C203.383 155.233 203.011 154.453 202.814 153.621C202.618 152.79 202.602 151.926 202.768 151.088C203.167 149.468 204.004 147.989 205.188 146.812C206.271 145.669 207.504 144.675 208.851 143.859C209.035 143.702 209.163 143.492 209.218 143.257C209.274 143.023 209.253 142.777 209.159 142.555C209.055 142.234 208.859 141.951 208.594 141.742C208.284 141.504 207.903 141.379 207.513 141.385C207.383 141.385 207.253 141.397 207.124 141.419C205.599 141.663 204.134 142.192 202.805 142.978C201.665 143.663 200.677 144.574 199.9 145.653C198.458 147.725 197.8 150.242 198.046 152.754C198.154 154.04 198.475 155.3 198.996 156.481C199.513 157.668 200.238 158.752 201.137 159.684C202.115 160.687 203.289 161.479 204.586 162.011C205.883 162.542 207.275 162.801 208.677 162.773ZM245.312 137.37C246.197 137.355 247.048 137.022 247.709 136.432C248.416 135.815 248.865 134.954 248.965 134.022C249.226 131.668 249.177 129.291 248.821 126.951C248.735 126.264 248.647 125.553 248.586 124.787C248.544 124.199 248.38 123.625 248.103 123.104C247.826 122.583 247.444 122.125 246.98 121.76C246.113 121.075 245.042 120.698 243.937 120.692C243.111 120.673 242.302 120.927 241.635 121.415C240.931 121.971 240.474 122.783 240.365 123.674C239.758 127.682 240.453 131.78 242.347 135.365C242.64 135.987 243.098 136.516 243.672 136.895C244.162 137.206 244.731 137.371 245.312 137.37V137.37ZM191.535 135.767C192.011 135.784 192.485 135.696 192.923 135.508C193.361 135.321 193.752 135.039 194.068 134.683C194.716 133.894 195.237 133.01 195.614 132.062C196.026 131.053 196.291 129.99 196.402 128.906C196.635 126.497 195.987 124.457 194.575 123.161C194.488 123.006 194.39 122.857 194.282 122.716C193.644 121.881 192.574 120.886 191.098 120.886C190.771 120.887 190.445 120.935 190.131 121.028C189.439 121.211 188.799 121.551 188.259 122.021C187.72 122.491 187.296 123.079 187.021 123.739C186.433 125.094 186.3 126.909 186.636 128.983C186.918 130.702 187.455 132.369 188.228 133.93C188.537 134.512 189.017 134.986 189.604 135.286C190.199 135.599 190.862 135.764 191.535 135.766V135.767ZM261.542 118.92C261.642 118.916 261.74 118.886 261.825 118.834C261.911 118.782 261.982 118.709 262.031 118.621C262.093 118.527 262.128 118.418 262.135 118.305C262.142 118.193 262.12 118.08 262.07 117.979C260.802 115.584 259.106 113.441 257.068 111.654C255.047 109.844 252.796 108.308 250.374 107.086C247.874 105.777 245.195 104.843 242.422 104.314L241.573 104.164C240.43 103.942 239.269 103.816 238.104 103.789C236.168 103.789 234.768 104.311 233.822 105.384C233.212 106.101 232.904 107.026 232.963 107.965C232.982 108.29 233.068 108.608 233.216 108.898C233.364 109.189 233.57 109.445 233.822 109.652C235.183 110.752 236.614 110.977 238.345 110.977C238.701 110.977 239.069 110.968 239.426 110.959H239.439C239.782 110.95 240.17 110.94 240.555 110.94C240.91 110.94 241.227 110.948 241.523 110.966C243.802 111.095 246.059 111.48 248.251 112.112C253.037 113.478 256.96 115.956 261.229 118.817C261.321 118.882 261.43 118.918 261.542 118.92V118.92ZM179.663 115.498C179.785 115.469 179.905 115.439 180.021 115.408C181.38 115.036 182.695 114.523 183.947 113.878L185.222 113.25C186.693 112.499 188.214 111.852 189.775 111.312C193.148 110.21 196.622 109.444 200.147 109.026C200.898 108.952 201.616 108.68 202.227 108.237C202.81 107.801 203.222 107.174 203.391 106.466C203.529 106.025 203.568 105.558 203.506 105.1C203.444 104.641 203.282 104.202 203.032 103.812C202.655 103.174 202.077 102.677 201.389 102.398C200.944 102.219 200.468 102.129 199.987 102.131C199.716 102.132 199.446 102.159 199.18 102.212L198.53 102.345C194.017 103.288 190.352 104.476 187.328 105.979C185.552 106.839 183.896 107.926 182.402 109.215C180.953 110.467 179.769 111.995 178.919 113.711C178.797 114.649 178.91 114.882 179.036 115.04L179.072 115.085C179.083 115.099 179.093 115.113 179.104 115.13C179.235 115.32 179.434 115.452 179.66 115.5L179.663 115.498Z" fill="black"/>
<path d="M247.535 160.701C249.54 160.696 251.541 160.515 253.515 160.159C255.51 159.805 257.469 159.273 259.369 158.568C263.342 157.083 266.568 154.954 268.697 152.413C271.127 149.309 273.058 144.081 273.996 138.068C274.459 135.129 274.656 132.155 274.584 129.18C274.536 126.345 274.155 123.524 273.448 120.777L273.476 120.766C273.492 120.76 273.507 120.754 273.521 120.747C273.554 121.063 274.009 121.329 274.836 121.515C275.803 121.705 276.787 121.794 277.773 121.78C280.318 121.78 283.274 121.307 284.14 120.251C284.24 120.137 284.313 120.002 284.352 119.855C284.391 119.708 284.396 119.555 284.366 119.406C289.755 119.503 295.596 119.858 302.221 120.486C308.131 121.05 314.122 121.777 319.915 122.481C323.912 122.967 328.042 123.468 332.133 123.915C334.063 124.095 334.158 125.468 334.25 126.796C334.259 127.341 334.347 127.881 334.511 128.4C334.601 128.646 334.751 128.865 334.947 129.039C335.143 129.213 335.379 129.334 335.634 129.394H335.73C336.072 129.412 336.415 129.359 336.736 129.238C337.057 129.116 337.349 128.929 337.593 128.688C338.02 128.202 338.271 127.586 338.304 126.94C338.372 125.538 338.005 124.15 337.255 122.964C336.888 122.348 336.417 121.799 335.864 121.343C335.342 120.906 334.718 120.607 334.05 120.475C330.07 120.059 325.985 119.509 322.036 118.977C313.633 117.846 304.944 116.676 296.444 116.676C292.257 116.65 288.076 116.978 283.944 117.657C283.164 116.667 282.04 116.185 280.507 116.185C279.133 116.252 277.772 116.481 276.452 116.867C275.729 117.048 275.05 117.219 274.462 117.307C274.109 115.448 273.097 113.779 271.613 112.605C269.837 111.193 267.812 110.126 265.643 109.458C263.028 108.611 260.336 108.021 257.606 107.697C254.604 107.321 251.58 107.137 248.553 107.147C239.986 107.147 231.429 108.503 226.753 110.6C218.16 109.612 209.245 108.918 200.623 108.247H200.611C197.124 107.976 193.519 107.695 190.035 107.402C185.131 105.761 180.003 104.887 174.832 104.813C171.731 104.788 168.643 105.216 165.666 106.082C165.522 106.074 165.395 106.071 165.283 106.071C164.537 106.071 164.419 106.237 164.204 106.54C164.161 106.6 164.113 106.667 164.057 106.738C162.423 107.479 160.981 108.584 159.84 109.967C158.616 111.414 157.747 113.125 157.3 114.966C155.519 114.17 153.582 113.785 151.632 113.839C150.447 113.848 149.264 113.934 148.091 114.096C147.583 114.304 147.124 114.616 146.744 115.011C146.63 115.128 146.546 115.27 146.499 115.426C146.451 115.582 146.442 115.747 146.472 115.908C146.608 116.325 146.892 116.679 147.27 116.902C147.787 117.247 148.349 117.52 148.94 117.715C150.362 118.201 151.853 118.455 153.356 118.468C155.17 118.468 156.393 118.035 156.801 117.248C156.404 120.468 156.402 123.725 156.795 126.946C157.206 130.555 158.033 134.104 159.261 137.523C160.465 140.954 162.204 144.175 164.412 147.066C166.536 149.869 169.295 152.129 172.462 153.662C175.385 155.12 178.603 155.887 181.87 155.904C184.574 155.907 187.25 155.353 189.73 154.277C192.199 153.208 194.431 151.661 196.297 149.724C200.593 145.289 202.836 139.123 202.612 132.361C202.855 132.299 203.082 132.184 203.276 132.025C203.47 131.867 203.627 131.668 203.736 131.442C204.101 130.641 204.272 129.766 204.238 128.887C204.235 127.749 204.133 126.613 203.933 125.492C203.563 123.342 203.019 121.225 202.305 119.163C205.104 118.683 207.937 118.415 210.777 118.364C213.399 118.334 216.011 118.713 218.517 119.486C217.814 121.467 217.846 124.509 218.61 128.282C219.472 132.281 220.758 136.175 222.448 139.901C224.142 143.781 226.251 147.467 228.738 150.894C229.832 152.393 231.055 153.793 232.393 155.08C233.511 156.173 234.785 157.096 236.173 157.818C237.721 158.842 239.442 159.578 241.253 159.99C243.311 160.478 245.419 160.717 247.534 160.7V160.7L247.535 160.701ZM251.444 111.502C256.216 111.502 258.69 111.847 260.313 112.148C263.152 112.605 265.858 113.674 268.243 115.28C268.908 116.064 269.429 116.96 269.781 117.926C270.235 119.128 270.572 120.371 270.786 121.638C271.292 124.736 271.45 127.882 271.256 131.016C271.089 134.363 270.595 137.686 269.779 140.937C268.939 144.203 267.8 146.962 266.483 148.917C265.747 150.11 263.493 152.093 260.119 153.837C258.37 154.743 256.532 155.466 254.634 155.993C252.562 156.576 250.422 156.877 248.27 156.889C245.969 156.897 243.685 156.505 241.52 155.729C239.07 154.826 236.816 153.465 234.877 151.719C232.461 149.512 230.421 146.927 228.834 144.067C226.716 140.243 225.054 136.184 223.883 131.974C222.682 128.932 222.074 126.196 222.082 123.842C222.038 121.797 222.609 119.785 223.721 118.068C224.549 116.866 225.617 115.849 226.857 115.079C228.255 114.214 229.765 113.545 231.344 113.091C233.17 112.559 235.038 112.183 236.928 111.966C239.062 111.715 241.207 111.58 243.355 111.559C243.748 111.565 244.155 111.568 244.598 111.568C245.691 111.568 246.783 111.551 247.938 111.534H247.981C249.107 111.52 250.27 111.503 251.444 111.503V111.502ZM174.311 109.401C177.42 109.347 180.528 109.582 183.593 110.103C186.649 110.619 189.58 111.702 192.235 113.298C194.941 114.993 197.029 117.513 198.192 120.484C198.788 121.947 199.22 123.471 199.479 125.029C199.742 126.595 199.868 128.18 199.856 129.768C199.778 130.343 199.884 130.929 200.16 131.44C200.406 131.835 200.771 132.142 201.203 132.317C200.663 135.397 199.708 138.39 198.363 141.214C197.255 143.538 195.766 145.66 193.957 147.493C192.388 149.075 190.528 150.339 188.48 151.216C186.566 152.027 184.509 152.445 182.43 152.445H182.428C177.701 152.445 173.05 150.313 169.331 146.441C165.239 142.182 162.511 136.111 161.442 128.885C160.89 125.991 160.667 123.043 160.778 120.099C160.845 118.735 161.083 117.384 161.484 116.078C161.859 114.859 162.471 113.724 163.284 112.74C164.214 111.656 165.4 110.82 166.735 110.306C168.459 109.672 170.287 109.367 172.125 109.408C172.302 109.408 172.482 109.408 172.661 109.414C173.251 109.406 173.791 109.402 174.311 109.402V109.401ZM225.049 111.54C223.65 112.385 222.389 113.44 221.313 114.668C220.24 115.839 219.389 117.193 218.8 118.666C217.248 117.661 215.51 116.974 213.689 116.647C211.858 116.302 209.996 116.14 208.133 116.163C207.442 116.163 206.716 116.179 205.912 116.213C205.668 116.228 205.414 116.237 205.143 116.248C203.848 116.297 202.381 116.353 201.285 116.936C200.569 115.545 199.681 114.25 198.641 113.081C197.652 111.959 196.528 110.962 195.294 110.116C196.666 110.22 198.067 110.33 199.422 110.436H199.429C206.658 111.004 214.133 111.591 221.401 111.591C222.648 111.592 223.875 111.575 225.049 111.54Z" fill="black"/>
</g>
<defs>
<clipPath id="clip0_128_338">
<rect width="453" height="532" fill="white" transform="matrix(-1 0 0 1 453 0)"/>
</clipPath>
</defs>
</svg>
