<svg width="42" height="42" viewBox="0 0 42 42" fill="none" xmlns="http://www.w3.org/2000/svg">
<path fill-rule="evenodd" clip-rule="evenodd" d="M18.9608 13.0038C20.1784 14.5322 21.2698 16.1658 22.2191 17.8889C23.9359 17.2475 25.5529 16.4016 27.0406 15.3808C25.5335 13.7614 23.385 12.75 21 12.75C20.2956 12.75 19.6125 12.8381 18.9608 13.0038ZM27.9603 16.5687C26.4038 17.645 24.7133 18.5414 22.9191 19.2278C23.2046 19.8042 23.4745 20.3896 23.7284 20.9836C24.3901 20.886 25.0672 20.8354 25.7561 20.8354C26.9608 20.8354 28.1303 20.9902 29.2453 21.2813C29.2484 21.188 29.25 21.0942 29.25 21C29.25 19.3683 28.777 17.8486 27.9603 16.5687ZM29.0567 22.784C28.0072 22.4918 26.9005 22.3354 25.7561 22.3354C25.265 22.3354 24.7806 22.3642 24.3046 22.4203C24.9424 24.1202 25.4508 25.8834 25.8176 27.6981C27.4357 26.5321 28.6135 24.795 29.0567 22.784ZM24.445 28.4987C24.0722 26.4943 23.5192 24.5532 22.8035 22.6928C19.9486 23.3976 17.487 25.1016 15.8109 27.4141C17.2286 28.5627 19.0334 29.25 21 29.25C22.2309 29.25 23.3973 28.9809 24.445 28.4987ZM14.7262 26.3577C16.5588 23.9121 19.1869 22.0952 22.2272 21.2916C21.9947 20.7614 21.7488 20.2384 21.4899 19.723C19.2431 20.4221 16.8543 20.7988 14.378 20.7988C13.8323 20.7988 13.2907 20.7805 12.7539 20.7445C12.7513 20.8293 12.75 20.9145 12.75 21C12.75 23.0452 13.4934 24.9158 14.7262 26.3577ZM12.9352 19.2531C13.4121 19.2834 13.8933 19.2988 14.378 19.2988C16.6001 19.2988 18.7462 18.9755 20.7722 18.3735C19.8119 16.6639 18.7045 15.0478 17.4671 13.5424C15.1853 14.6253 13.4802 16.7247 12.9352 19.2531ZM17.4063 11.9339C18.5193 11.4923 19.7323 11.25 21 11.25C24.1506 11.25 26.9523 12.7452 28.7335 15.0617C29.9979 16.706 30.75 18.7662 30.75 21C30.75 21.4635 30.7176 21.9198 30.6549 22.3668C30.2164 25.49 28.3001 28.1359 25.6384 29.5779C24.2583 30.3257 22.6776 30.75 21 30.75C18.4059 30.75 16.047 29.7359 14.3008 28.084C12.423 26.3077 11.25 23.7902 11.25 21C11.25 20.61 11.2729 20.2251 11.3176 19.8466C11.7437 16.2337 14.1431 13.2284 17.4063 11.9339Z" fill="black"/>
</svg>
