<svg width="42" height="42" viewBox="0 0 42 42" fill="none" xmlns="http://www.w3.org/2000/svg">
<path d="M13.75 10.875C12.5764 10.875 11.625 11.8264 11.625 13C11.625 14.1736 12.5764 15.125 13.75 15.125C14.9236 15.125 15.875 14.1736 15.875 13C15.875 11.8264 14.9236 10.875 13.75 10.875Z" fill="black"/>
<path d="M11.75 16.875C11.681 16.875 11.625 16.931 11.625 17V30C11.625 30.069 11.681 30.125 11.75 30.125H15.75C15.819 30.125 15.875 30.069 15.875 30V17C15.875 16.931 15.819 16.875 15.75 16.875H11.75Z" fill="black"/>
<path d="M18.25 16.875C18.181 16.875 18.125 16.931 18.125 17V30C18.125 30.069 18.181 30.125 18.25 30.125H22.25C22.319 30.125 22.375 30.069 22.375 30V23C22.375 22.5027 22.5725 22.0258 22.9242 21.6742C23.2758 21.3225 23.7527 21.125 24.25 21.125C24.7473 21.125 25.2242 21.3225 25.5758 21.6742C25.9275 22.0258 26.125 22.5027 26.125 23V30C26.125 30.069 26.181 30.125 26.25 30.125H30.25C30.319 30.125 30.375 30.069 30.375 30V21.3802C30.375 18.9535 28.2644 17.055 25.8498 17.2745C25.1052 17.3422 24.369 17.5273 23.6815 17.8219L22.375 18.3819V17C22.375 16.931 22.319 16.875 22.25 16.875H18.25Z" fill="black"/>
</svg>
