<svg width="146" height="78" viewBox="0 0 146 78" fill="none" xmlns="http://www.w3.org/2000/svg">
<rect width="146" height="78" rx="39" fill="#4F66AF"/>
<path d="M23.9667 35.196C23.2387 35.196 22.604 35.0653 22.0627 34.804C21.5214 34.5427 21.1014 34.1553 20.8027 33.642C20.504 33.1193 20.3547 32.48 20.3547 31.724V25.2H21.5167V31.738C21.5167 32.5407 21.7314 33.1427 22.1607 33.544C22.59 33.9453 23.192 34.146 23.9667 34.146C24.7414 34.146 25.3434 33.9453 25.7727 33.544C26.202 33.1427 26.4167 32.5407 26.4167 31.738V25.2H27.5927V31.724C27.5927 32.48 27.4434 33.1193 27.1447 33.642C26.846 34.1553 26.4214 34.5427 25.8707 34.804C25.3294 35.0653 24.6947 35.196 23.9667 35.196ZM33.0109 35.196C32.3016 35.196 31.6669 35.07 31.1069 34.818C30.5469 34.566 30.1036 34.188 29.7769 33.684C29.4596 33.1707 29.3009 32.5313 29.3009 31.766V31.472H30.4629V31.766C30.4629 32.578 30.7009 33.1847 31.1769 33.586C31.6529 33.978 32.2642 34.174 33.0109 34.174C33.7762 34.174 34.3596 34.0013 34.7609 33.656C35.1622 33.3107 35.3629 32.8767 35.3629 32.354C35.3629 31.99 35.2696 31.7007 35.0829 31.486C34.9056 31.2713 34.6536 31.0987 34.3269 30.968C34.0002 30.828 33.6176 30.7067 33.1789 30.604L32.4509 30.422C31.8816 30.2727 31.3776 30.0907 30.9389 29.876C30.5002 29.6613 30.1549 29.3813 29.9029 29.036C29.6602 28.6813 29.5389 28.2287 29.5389 27.678C29.5389 27.1273 29.6742 26.6513 29.9449 26.25C30.2249 25.8487 30.6122 25.5407 31.1069 25.326C31.6109 25.1113 32.1896 25.004 32.8429 25.004C33.5056 25.004 34.0982 25.1207 34.6209 25.354C35.1529 25.578 35.5682 25.914 35.8669 26.362C36.1749 26.8007 36.3289 27.356 36.3289 28.028V28.616H35.1669V28.028C35.1669 27.552 35.0642 27.1693 34.8589 26.88C34.6629 26.5907 34.3876 26.376 34.0329 26.236C33.6876 26.096 33.2909 26.026 32.8429 26.026C32.1989 26.026 31.6809 26.1707 31.2889 26.46C30.8969 26.74 30.7009 27.1413 30.7009 27.664C30.7009 28.0093 30.7849 28.2893 30.9529 28.504C31.1209 28.7187 31.3589 28.896 31.6669 29.036C31.9749 29.1667 32.3436 29.2833 32.7729 29.386L33.5009 29.568C34.0702 29.6893 34.5789 29.8573 35.0269 30.072C35.4842 30.2773 35.8482 30.562 36.1189 30.926C36.3896 31.2807 36.5249 31.7473 36.5249 32.326C36.5249 32.9047 36.3802 33.4087 36.0909 33.838C35.8016 34.2673 35.3909 34.6033 34.8589 34.846C34.3362 35.0793 33.7202 35.196 33.0109 35.196ZM38.3348 35V25.2H44.3688V26.264H39.5108V29.54H43.9768V30.604H39.5108V33.936H44.4388V35H38.3348ZM46.2235 35V25.2H50.1855C50.7922 25.2 51.3242 25.3073 51.7815 25.522C52.2482 25.7273 52.6122 26.026 52.8735 26.418C53.1348 26.8007 53.2655 27.2627 53.2655 27.804V27.958C53.2655 28.602 53.1115 29.1107 52.8035 29.484C52.4955 29.8573 52.1315 30.1093 51.7115 30.24V30.436C52.0475 30.4453 52.3228 30.5573 52.5375 30.772C52.7615 30.9773 52.8735 31.29 52.8735 31.71V35H51.7115V31.85C51.7115 31.57 51.6322 31.3553 51.4735 31.206C51.3242 31.0567 51.0955 30.982 50.7875 30.982H47.3995V35H46.2235ZM47.3995 29.918H50.0735C50.7175 29.918 51.2122 29.764 51.5575 29.456C51.9122 29.1387 52.0895 28.7 52.0895 28.14V28.042C52.0895 27.482 51.9168 27.048 51.5715 26.74C51.2262 26.4227 50.7268 26.264 50.0735 26.264H47.3995V29.918ZM58.6513 35V25.2H59.8273V35H58.6513ZM62.0692 35V25.2H64.3512L67.7672 34.258H67.9492V25.2H69.1112V35H66.8292L63.4272 25.928H63.2312V35H62.0692ZM73.7741 35V26.264H70.6241V25.2H78.1001V26.264H74.9501V35H73.7741ZM79.5966 35V25.2H85.6306V26.264H80.7726V29.54H85.2386V30.604H80.7726V33.936H85.7006V35H79.5966ZM87.4852 35V25.2H91.4472C92.0539 25.2 92.5859 25.3073 93.0432 25.522C93.5099 25.7273 93.8739 26.026 94.1352 26.418C94.3966 26.8007 94.5272 27.2627 94.5272 27.804V27.958C94.5272 28.602 94.3732 29.1107 94.0652 29.484C93.7572 29.8573 93.3932 30.1093 92.9732 30.24V30.436C93.3092 30.4453 93.5846 30.5573 93.7992 30.772C94.0232 30.9773 94.1352 31.29 94.1352 31.71V35H92.9732V31.85C92.9732 31.57 92.8939 31.3553 92.7352 31.206C92.5859 31.0567 92.3572 30.982 92.0492 30.982H88.6612V35H87.4852ZM88.6612 29.918H91.3352C91.9792 29.918 92.4739 29.764 92.8192 29.456C93.1739 29.1387 93.3512 28.7 93.3512 28.14V28.042C93.3512 27.482 93.1786 27.048 92.8332 26.74C92.4879 26.4227 91.9886 26.264 91.3352 26.264H88.6612V29.918ZM96.3173 35V25.2H102.239V26.264H97.4933V29.554H101.861V30.618H97.4933V35H96.3173ZM102.493 35L105.517 25.2H107.589L110.613 35H109.395L108.639 32.522H104.467L103.711 35H102.493ZM104.761 31.458H108.331L106.651 25.914H106.455L104.761 31.458ZM115.486 35.196C114.32 35.196 113.391 34.86 112.7 34.188C112.01 33.5067 111.664 32.5173 111.664 31.22V28.98C111.664 27.6827 112.01 26.698 112.7 26.026C113.391 25.3447 114.32 25.004 115.486 25.004C116.644 25.004 117.53 25.326 118.146 25.97C118.772 26.614 119.084 27.496 119.084 28.616V28.686H117.922V28.574C117.922 27.8367 117.722 27.2347 117.32 26.768C116.928 26.292 116.317 26.054 115.486 26.054C114.656 26.054 114.007 26.3107 113.54 26.824C113.074 27.328 112.84 28.0373 112.84 28.952V31.248C112.84 32.1627 113.074 32.8767 113.54 33.39C114.007 33.894 114.656 34.146 115.486 34.146C116.317 34.146 116.928 33.9127 117.32 33.446C117.722 32.97 117.922 32.3633 117.922 31.626V31.402H119.084V31.584C119.084 32.704 118.772 33.586 118.146 34.23C117.53 34.874 116.644 35.196 115.486 35.196ZM120.927 35V25.2H126.961V26.264H122.103V29.54H126.569V30.604H122.103V33.936H127.031V35H120.927ZM46.9864 55V53.8H48.5544V45H46.9864V43.8H51.3544C52.8264 43.8 53.9624 44.1733 54.7624 44.92C55.573 45.6667 55.9784 46.8133 55.9784 48.36V50.44C55.9784 51.9973 55.573 53.1493 54.7624 53.896C53.9624 54.632 52.8264 55 51.3544 55H46.9864ZM49.8984 53.784H51.3544C52.4424 53.784 53.2637 53.5173 53.8184 52.984C54.373 52.4507 54.6504 51.624 54.6504 50.504V48.312C54.6504 47.1707 54.373 46.3387 53.8184 45.816C53.2637 45.2933 52.4424 45.032 51.3544 45.032H49.8984V53.784ZM58.1238 55V43.8H65.0198V45.016H59.4678V48.76H64.5718V49.976H59.4678V53.784H65.0998V55H58.1238ZM70.8674 55.224C70.0567 55.224 69.3314 55.08 68.6914 54.792C68.0514 54.504 67.5447 54.072 67.1714 53.496C66.8087 52.9093 66.6274 52.1787 66.6274 51.304V50.968H67.9554V51.304C67.9554 52.232 68.2274 52.9253 68.7714 53.384C69.3154 53.832 70.014 54.056 70.8674 54.056C71.742 54.056 72.4087 53.8587 72.8674 53.464C73.326 53.0693 73.5554 52.5733 73.5554 51.976C73.5554 51.56 73.4487 51.2293 73.2354 50.984C73.0327 50.7387 72.7447 50.5413 72.3714 50.392C71.998 50.232 71.5607 50.0933 71.0594 49.976L70.2274 49.768C69.5767 49.5973 69.0007 49.3893 68.4994 49.144C67.998 48.8987 67.6034 48.5787 67.3154 48.184C67.038 47.7787 66.8994 47.2613 66.8994 46.632C66.8994 46.0027 67.054 45.4587 67.3634 45C67.6834 44.5413 68.126 44.1893 68.6914 43.944C69.2674 43.6987 69.9287 43.576 70.6754 43.576C71.4327 43.576 72.11 43.7093 72.7074 43.976C73.3154 44.232 73.79 44.616 74.1314 45.128C74.4834 45.6293 74.6594 46.264 74.6594 47.032V47.704H73.3314V47.032C73.3314 46.488 73.214 46.0507 72.9794 45.72C72.7554 45.3893 72.4407 45.144 72.0354 44.984C71.6407 44.824 71.1874 44.744 70.6754 44.744C69.9394 44.744 69.3474 44.9093 68.8994 45.24C68.4514 45.56 68.2274 46.0187 68.2274 46.616C68.2274 47.0107 68.3234 47.3307 68.5154 47.576C68.7074 47.8213 68.9794 48.024 69.3314 48.184C69.6834 48.3333 70.1047 48.4667 70.5954 48.584L71.4274 48.792C72.078 48.9307 72.6594 49.1227 73.1714 49.368C73.694 49.6027 74.11 49.928 74.4194 50.344C74.7287 50.7493 74.8834 51.2827 74.8834 51.944C74.8834 52.6053 74.718 53.1813 74.3874 53.672C74.0567 54.1627 73.5874 54.5467 72.9794 54.824C72.382 55.0907 71.678 55.224 70.8674 55.224ZM76.9519 55V43.8H78.2959V55H76.9519ZM84.7621 55.224C83.9301 55.224 83.1941 55.0533 82.5541 54.712C81.9248 54.36 81.4288 53.848 81.0661 53.176C80.7141 52.504 80.5381 51.672 80.5381 50.68V48.12C80.5381 46.6373 80.9328 45.512 81.7221 44.744C82.5115 43.9653 83.5728 43.576 84.9061 43.576C86.2288 43.576 87.2368 43.9387 87.9301 44.664C88.6235 45.3893 88.9701 46.36 88.9701 47.576V47.656H87.6421V47.544C87.6421 47.0107 87.5461 46.536 87.3541 46.12C87.1621 45.704 86.8635 45.3787 86.4581 45.144C86.0528 44.8987 85.5355 44.776 84.9061 44.776C83.9568 44.776 83.2155 45.0693 82.6821 45.656C82.1488 46.232 81.8821 47.0427 81.8821 48.088V50.712C81.8821 51.7573 82.1488 52.5733 82.6821 53.16C83.2155 53.736 83.9621 54.024 84.9221 54.024C85.8608 54.024 86.5488 53.7573 86.9861 53.224C87.4341 52.6907 87.6581 51.9813 87.6581 51.096V50.824H84.2661V49.672H88.9701V55H87.7541V53.784H87.5301C87.4128 54.0187 87.2475 54.248 87.0341 54.472C86.8208 54.696 86.5328 54.8773 86.1701 55.016C85.8075 55.1547 85.3381 55.224 84.7621 55.224ZM91.4206 55V43.8H94.0286L97.9326 54.152H98.1406V43.8H99.4686V55H96.8606L92.9726 44.632H92.7486V55H91.4206Z" fill="black"/>
</svg>
