<svg width="160" height="107" viewBox="0 0 160 107" fill="none" xmlns="http://www.w3.org/2000/svg">
<rect y="30.3551" width="146" height="78" rx="39" transform="rotate(-12 0 30.3551)" fill="#4F66AF"/>
<path d="M30.7947 59.7918C30.0369 59.9529 29.3551 59.9547 28.7491 59.7972C28.1522 59.6379 27.6489 59.3346 27.2389 58.8873C26.8362 58.4291 26.5562 57.8302 26.399 57.0907L25.0601 50.7914L26.5527 50.4742L27.9004 56.8145C28.044 57.4901 28.3418 57.9707 28.7937 58.2563C29.2456 58.5419 29.8185 58.611 30.5123 58.4635C31.2062 58.316 31.7014 58.0199 31.9981 57.5752C32.2948 57.1304 32.3713 56.5703 32.2277 55.8947L30.88 49.5544L32.359 49.24L33.698 55.5393C33.8551 56.2788 33.843 56.9397 33.6614 57.5222C33.478 58.0955 33.1415 58.5774 32.6519 58.9677C32.1624 59.358 31.5433 59.6327 30.7947 59.7918ZM39.6266 57.9145C38.9054 58.0678 38.2392 58.0759 37.6279 57.9386C37.0167 57.8014 36.4989 57.5202 36.0746 57.0951C35.6575 56.659 35.3732 56.0849 35.2219 55.3728L35.1491 55.0304L36.6144 54.719L36.6871 55.0613C36.8307 55.7369 37.1393 56.2009 37.6128 56.4533C38.0954 56.7038 38.6745 56.7572 39.3501 56.6136C40.0348 56.4681 40.5205 56.2169 40.8073 55.8602C41.0921 55.4943 41.186 55.0831 41.089 54.6267C41.0249 54.3254 40.8904 54.0964 40.6853 53.9396C40.4802 53.7828 40.2154 53.6816 39.8908 53.6361C39.5643 53.5815 39.1804 53.5486 38.7391 53.5374L38.2063 53.5219C37.5635 53.5058 36.9916 53.4413 36.4905 53.3284C35.9966 53.2043 35.5886 52.9905 35.2664 52.6868C34.9442 52.3832 34.724 51.9529 34.6056 51.396C34.4853 50.83 34.5194 50.317 34.7079 49.8571C34.9055 49.3953 35.2275 49.0024 35.6739 48.6785C36.1204 48.3546 36.6768 48.1219 37.3432 47.9802C38.0097 47.8385 38.6273 47.8265 39.1962 47.9441C39.7742 48.0598 40.2614 48.3093 40.6578 48.6926C41.0541 49.0759 41.3241 49.6054 41.4677 50.2809L41.5725 50.7739L40.1072 51.0854L40.0024 50.5924C39.9151 50.1816 39.7576 49.8668 39.5298 49.648C39.3111 49.4273 39.0385 49.2897 38.712 49.235C38.3855 49.1804 38.0214 49.1958 37.6198 49.2811C37.0355 49.4053 36.6052 49.6256 36.3289 49.9419C36.0599 50.2472 35.9709 50.6144 36.0621 51.0435C36.1242 51.3356 36.2441 51.563 36.4218 51.7256C36.6067 51.8772 36.8487 51.9832 37.1478 52.0436C37.4469 52.1041 37.8116 52.1363 38.2418 52.1403L38.7747 52.1558C39.4246 52.1608 40.0102 52.2224 40.5315 52.3406C41.0508 52.4497 41.4863 52.6577 41.8378 52.9647C42.1893 53.2716 42.4262 53.7127 42.5484 54.2878C42.6707 54.863 42.6313 55.3961 42.4304 55.8873C42.2386 56.3765 41.9041 56.8007 41.427 57.1597C40.948 57.5096 40.3478 57.7612 39.6266 57.9145ZM44.6715 56.6418L42.6339 47.056L48.673 45.7724L48.9583 47.1144L44.3982 48.0837L44.9832 50.8362L49.1599 49.9484L49.4452 51.2904L45.2685 52.1782L45.8652 54.9855L50.4938 54.0016L50.779 55.3436L44.6715 56.6418ZM52.3209 55.0159L50.2834 45.4301L54.3094 44.5743C54.9028 44.4482 55.4455 44.4425 55.9375 44.5574C56.4367 44.6613 56.8502 44.8787 57.1782 45.2097C57.5153 45.5388 57.7402 45.9681 57.8527 46.4976L57.8848 46.6483C58.0128 47.2508 57.9696 47.7657 57.7551 48.193C57.5478 48.6092 57.2542 48.934 56.8744 49.1674L56.921 49.3865C57.2718 49.331 57.5755 49.3905 57.832 49.565C58.0866 49.7303 58.2566 50.0138 58.342 50.4155L59.0173 53.5925L57.5246 53.9098L56.893 50.9382C56.8406 50.6917 56.735 50.509 56.5761 50.3901C56.4173 50.2712 56.1963 50.2418 55.9133 50.302L52.9965 50.922L53.7999 54.7015L52.3209 55.0159ZM52.7112 49.58L55.094 49.0735C55.6235 48.9609 56.0062 48.7412 56.2421 48.4144C56.476 48.0784 56.5435 47.6776 56.4445 47.212L56.4212 47.1025C56.3222 46.6369 56.0985 46.3028 55.7501 46.1001C55.4089 45.8864 54.969 45.8368 54.4303 45.9512L52.0476 46.4577L52.7112 49.58ZM64.4637 52.4349L62.4261 42.849L63.9051 42.5347L65.9426 52.1205L64.4637 52.4349ZM67.9407 51.6958L65.9032 42.11L68.7515 41.5045L73.1814 49.5514L73.4005 49.5048L71.5725 40.9049L73.0378 40.5935L75.0753 50.1793L72.2269 50.7848L67.7942 42.7242L67.5751 42.7708L69.406 51.3844L67.9407 51.6958ZM79.3614 49.2683L77.6092 41.0244L74.6649 41.6503L74.3797 40.3082L81.7471 38.7422L82.0323 40.0843L79.0881 40.7101L80.8404 48.9539L79.3614 49.2683ZM85.1251 48.0432L83.0876 38.4573L89.1267 37.1737L89.4119 38.5157L84.8518 39.485L85.4369 42.2375L89.6136 41.3497L89.8988 42.6917L85.7221 43.5795L86.3188 46.3868L90.9474 45.4029L91.2327 46.745L85.1251 48.0432ZM92.7746 46.4172L90.737 36.8314L94.7631 35.9756C95.3565 35.8495 95.8992 35.8439 96.3912 35.9587C96.8903 36.0626 97.3039 36.28 97.6319 36.611C97.969 36.9401 98.1938 37.3694 98.3064 37.8989L98.3384 38.0496C98.4665 38.6521 98.4233 39.167 98.2087 39.5943C98.0014 40.0105 97.7079 40.3353 97.3281 40.5687L97.3747 40.7878C97.7255 40.7323 98.0291 40.7918 98.2857 40.9663C98.5403 41.1316 98.7103 41.4151 98.7957 41.8168L99.471 44.9939L97.9783 45.3111L97.3467 42.3395C97.2943 42.093 97.1887 41.9103 97.0298 41.7914C96.8709 41.6725 96.65 41.6431 96.367 41.7033L93.4502 42.3233L94.2535 46.1029L92.7746 46.4172ZM93.1649 40.9813L95.5477 40.4748C96.0772 40.3623 96.4599 40.1426 96.6957 39.8157C96.9296 39.4797 96.9971 39.0789 96.8982 38.6133L96.8749 38.5038C96.7759 38.0382 96.5522 37.7041 96.2038 37.5014C95.8626 37.2877 95.4226 37.2381 94.884 37.3526L92.5012 37.859L93.1649 40.9813ZM101.427 44.5781L99.3894 34.9922L105.305 33.7348L105.591 35.0768L101.154 36.0199L101.742 38.7861L105.822 37.9187L106.108 39.2607L102.027 40.1281L102.906 44.2637L101.427 44.5781ZM107.468 43.294L108.17 33.126L110.771 32.5729L115.534 41.5795L114.014 41.9026L112.904 39.777L109.152 40.5745L109.002 42.968L107.468 43.294ZM109.23 39.1266L112.243 38.4862L109.775 33.7437L109.556 33.7902L109.23 39.1266ZM120.327 40.7611C119.158 41.0095 118.162 40.8778 117.338 40.3661C116.511 39.8452 115.965 38.9593 115.699 37.7086L115.222 35.4628C114.956 34.2121 115.096 33.1853 115.641 32.3824C116.184 31.5704 117.039 31.0402 118.208 30.7919C119.358 30.5474 120.312 30.6787 121.068 31.1858C121.834 31.6909 122.334 32.4958 122.569 33.6005L122.587 33.6826L121.121 33.9941L121.095 33.8709C120.957 33.2227 120.667 32.731 120.224 32.3959C119.789 32.0588 119.212 31.9669 118.49 32.1202C117.76 32.2754 117.237 32.6204 116.921 33.155C116.604 33.6806 116.528 34.3359 116.695 35.121L117.184 37.4216C117.349 38.1976 117.684 38.7656 118.19 39.1257C118.696 39.4857 119.314 39.5881 120.045 39.4328C120.766 39.2795 121.256 38.9606 121.516 38.476C121.783 37.9804 121.848 37.4131 121.712 36.774L121.663 36.5412L123.128 36.2297L123.169 36.4215C123.404 37.5261 123.274 38.4649 122.78 39.2379C122.295 40.0089 121.477 40.5166 120.327 40.7611ZM125.525 39.4558L123.488 29.87L129.527 28.5863L129.812 29.9284L125.252 30.8976L125.837 33.6502L130.014 32.7624L130.299 34.1044L126.122 34.9922L126.719 37.7995L131.348 36.8156L131.633 38.1576L125.525 39.4558ZM57.3412 74.3956L57.0219 72.8932L58.493 72.5805L56.8031 64.6301L55.332 64.9428L55.0126 63.4404L59.3947 62.5089C60.8554 62.1984 62.0506 62.3315 62.9801 62.9082C63.9201 63.4827 64.5486 64.5159 64.8658 66.0079L65.3015 68.0581C65.6187 69.5501 65.4647 70.7496 64.8397 71.6568C64.2228 72.5512 63.184 73.1537 61.7233 73.4642L57.3412 74.3956ZM60.1923 72.1866L61.413 71.9271C62.3624 71.7253 63.0157 71.3356 63.3728 70.7581C63.7298 70.1806 63.8074 69.4171 63.6056 68.4676L63.1466 66.3079C62.9425 65.348 62.5611 64.6821 62.0022 64.3102C61.4433 63.9382 60.6892 63.8532 59.7397 64.055L58.519 64.3145L60.1923 72.1866ZM68.1563 72.0968L65.8276 61.1416L72.7294 59.6745L73.0555 61.2083L67.8439 62.316L68.5125 65.4617L73.2859 64.4471L73.6119 65.9809L68.8385 66.9955L69.5205 70.2038L74.8103 69.0794L75.1363 70.6132L68.1563 72.0968ZM80.6698 69.666C79.8456 69.8412 79.0842 69.8504 78.3856 69.6935C77.6871 69.5366 77.0953 69.2153 76.6104 68.7295C76.1337 68.2311 75.8088 67.5749 75.6358 66.7611L75.5527 66.3699L77.2273 66.0139L77.3104 66.4052C77.4745 67.1773 77.8272 67.7075 78.3683 67.996C78.9199 68.2822 79.5817 68.3433 80.3538 68.1792C81.1363 68.0129 81.6914 67.7258 82.0191 67.3181C82.3447 66.9 82.452 66.4301 82.3411 65.9084C82.2679 65.5641 82.1141 65.3023 81.8797 65.1232C81.6454 64.944 81.3427 64.8284 80.9718 64.7763C80.5987 64.7139 80.1599 64.6763 79.6556 64.6635L79.0466 64.6458C78.312 64.6274 77.6584 64.5537 77.0857 64.4246C76.5213 64.2829 76.0549 64.0385 75.6867 63.6915C75.3185 63.3444 75.0668 62.8527 74.9315 62.2162C74.794 61.5694 74.833 60.9831 75.0484 60.4575C75.2743 59.9297 75.6423 59.4807 76.1525 59.1105C76.6627 58.7404 77.2986 58.4743 78.0602 58.3124C78.8219 58.1505 79.5278 58.1368 80.178 58.2712C80.8385 58.4035 81.3953 58.6886 81.8483 59.1266C82.3013 59.5647 82.6098 60.1698 82.7739 60.9419L82.8937 61.5053L81.2191 61.8612L81.0993 61.2978C80.9996 60.8283 80.8195 60.4685 80.5592 60.2185C80.3093 59.9663 79.9977 59.809 79.6246 59.7465C79.2515 59.6841 78.8353 59.7016 78.3763 59.7992C77.7085 59.9412 77.2168 60.1929 76.9011 60.5544C76.5935 60.9033 76.4919 61.323 76.5961 61.8133C76.6671 62.1472 76.8041 62.4071 77.0072 62.5929C77.2185 62.7661 77.4951 62.8873 77.8369 62.9564C78.1787 63.0255 78.5955 63.0623 79.0872 63.0668L79.6962 63.0846C80.4389 63.0903 81.1082 63.1607 81.704 63.2958C82.2975 63.4204 82.7951 63.6581 83.1969 64.009C83.5986 64.3598 83.8693 64.8638 84.009 65.5211C84.1487 66.1785 84.1038 66.7878 83.8741 67.3491C83.6549 67.9083 83.2727 68.393 82.7274 68.8033C82.1799 69.2032 81.4941 69.4908 80.6698 69.666ZM86.4354 68.2115L84.1068 57.2562L85.797 56.8969L88.1256 67.8522L86.4354 68.2115ZM94.2587 66.7776C93.4762 66.9439 92.7417 66.9255 92.0551 66.7225C91.3664 66.5091 90.7747 66.1114 90.2803 65.5295C89.7858 64.9475 89.4377 64.1819 89.2359 63.2324L88.6903 60.6657C88.3865 59.2363 88.546 58.0629 89.1688 57.1453C89.7895 56.2173 90.7675 55.6114 92.103 55.3276C93.4177 55.0481 94.5062 55.193 95.3687 55.7621C96.229 56.3207 96.7867 57.2 97.0417 58.3999L97.0583 58.4781L95.3838 58.8341L95.3571 58.7089C95.2618 58.2602 95.0877 57.8774 94.8349 57.5603C94.58 57.2329 94.2529 57.0025 93.8538 56.8692C93.4547 56.736 92.9787 56.7281 92.4257 56.8456C91.591 57.0231 90.9932 57.4173 90.6324 58.0283C90.2693 58.6289 90.1832 59.3779 90.3739 60.2752L90.9328 62.9044C91.1213 63.7913 91.5057 64.4457 92.0861 64.8675C92.6643 65.279 93.376 65.3949 94.2211 65.2153C95.0558 65.0378 95.6173 64.6786 95.9058 64.1374C96.1943 63.5963 96.2609 62.9606 96.1056 62.2302L96.0624 62.0267L93.1201 62.6521L92.8107 61.1967L97.4276 60.2153L98.5786 65.6303L97.0136 65.963L96.7774 64.8518L96.527 64.9051C96.4752 65.1233 96.3776 65.3566 96.2341 65.6052C96.1011 65.8516 95.8769 66.0792 95.5614 66.288C95.2564 66.4946 94.8221 66.6578 94.2587 66.7776ZM100.756 65.1675L98.4275 54.2123L101.683 53.5203L106.745 62.7167L106.996 62.6635L104.907 52.835L106.581 52.4791L108.91 63.4344L105.655 64.1263L100.589 54.9143L100.338 54.9675L102.431 64.8116L100.756 65.1675Z" fill="white"/>
<g clip-path="url(#clip0_404_329)">
<g filter="url(#filter0_d_404_329)">
<path d="M130.577 86.6879L128.976 91.4895L122.844 74.8437L139.49 80.9764L134.688 82.5767L134.846 83.051L134.688 82.5767C133.731 82.8957 132.861 83.4334 132.147 84.147C131.433 84.8606 130.896 85.7305 130.577 86.6879L131.051 86.846L130.577 86.6879Z" stroke="white" stroke-linejoin="round" shape-rendering="crispEdges"/>
</g>
<path d="M136.402 80.8992C136.065 80.9994 135.689 81.1194 135.295 81.2598C133.898 81.7569 132.171 82.5394 131.133 83.6602C130.123 84.7503 129.473 86.4752 129.076 87.8605C128.99 88.1631 128.914 88.4537 128.848 88.7235L123.881 75.8909L136.402 80.8992Z" fill="white" stroke="black"/>
</g>
<defs>
<filter id="filter0_d_404_329" x="92" y="48" width="79" height="79" filterUnits="userSpaceOnUse" color-interpolation-filters="sRGB">
<feFlood flood-opacity="0" result="BackgroundImageFix"/>
<feColorMatrix in="SourceAlpha" type="matrix" values="0 0 0 0 0 0 0 0 0 0 0 0 0 0 0 0 0 0 127 0" result="hardAlpha"/>
<feOffset dy="4"/>
<feGaussianBlur stdDeviation="15"/>
<feComposite in2="hardAlpha" operator="out"/>
<feColorMatrix type="matrix" values="0 0 0 0 0 0 0 0 0 0 0 0 0 0 0 0 0 0 0.8 0"/>
<feBlend mode="normal" in2="BackgroundImageFix" result="effect1_dropShadow_404_329"/>
<feBlend mode="normal" in="SourceGraphic" in2="effect1_dropShadow_404_329" result="shape"/>
</filter>
<clipPath id="clip0_404_329">
<rect width="24" height="24" fill="white" transform="translate(119 71)"/>
</clipPath>
</defs>
</svg>
